<?xml version="1.0" encoding="UTF-8" standalone="no"?>
<svg
   xmlns:dc="http://purl.org/dc/elements/1.1/"
   xmlns:cc="http://creativecommons.org/ns#"
   xmlns:rdf="http://www.w3.org/1999/02/22-rdf-syntax-ns#"
   xmlns:svg="http://www.w3.org/2000/svg"
   xmlns="http://www.w3.org/2000/svg"
   xmlns:sodipodi="http://sodipodi.sourceforge.net/DTD/sodipodi-0.dtd"
   xmlns:inkscape="http://www.inkscape.org/namespaces/inkscape"
   width="38.455139mm"
   height="33.048328mm"
   viewBox="0 0 38.455139 33.048328"
   version="1.1"
   id="svg888"
   inkscape:version="1.0.2 (e86c870879, 2021-01-15)"
   sodipodi:docname="bub.svg">
  <defs
     id="defs882" />
  <sodipodi:namedview
     id="base"
     pagecolor="#ffffff"
     bordercolor="#666666"
     borderopacity="1.0"
     inkscape:pageopacity="0.0"
     inkscape:pageshadow="2"
     inkscape:zoom="1.979899"
     inkscape:cx="53.487598"
     inkscape:cy="-23.053088"
     inkscape:document-units="mm"
     inkscape:current-layer="layer1"
     inkscape:document-rotation="0"
     showgrid="false"
     fit-margin-top="0"
     fit-margin-left="0"
     fit-margin-right="0"
     fit-margin-bottom="0"
     inkscape:window-width="1515"
     inkscape:window-height="1055"
     inkscape:window-x="2244"
     inkscape:window-y="907"
     inkscape:window-maximized="0" />
  <metadata
     id="metadata885">
    <rdf:RDF>
      <cc:Work
         rdf:about="">
        <dc:format>image/svg+xml</dc:format>
        <dc:type
           rdf:resource="http://purl.org/dc/dcmitype/StillImage" />
        <dc:title></dc:title>
      </cc:Work>
    </rdf:RDF>
  </metadata>
  <g
     inkscape:label="Layer 1"
     inkscape:groupmode="layer"
     id="layer1"
     transform="translate(-111.04093,-203.52303)">
    <path
       style="fill:#000000;stroke-width:0.352778"
       d="m 128.3294,236.24969 c -2.42466,-0.38535 -3.94853,-1.92029 -4.62765,-4.66124 -0.42665,-1.72198 -0.4647,-1.7662 -0.66151,-0.76874 -0.11485,0.58209 -0.004,1.75826 0.24712,2.61371 0.71534,2.44033 0.68037,2.50157 -1.42828,2.50157 -2.3238,0 -5.06962,-0.79226 -5.72014,-1.65045 -0.5863,-0.77346 -0.63124,-1.95414 -0.1415,-3.71751 0.54237,-1.95288 1.16075,-2.39315 3.36132,-2.39315 2.48589,0 2.47491,-0.54907 -0.0161,-0.80616 -1.06216,-0.10963 -2.09404,-0.29996 -2.29305,-0.42296 -0.52166,-0.3224 -0.44573,-1.93584 0.10097,-2.14562 0.25455,-0.0977 1.80237,0.11727 3.43958,0.47767 3.70575,0.81575 5.73078,0.75783 7.63186,-0.21827 0.91709,-0.47088 2.46027,-0.83793 4.05694,-0.96496 1.63458,-0.13005 2.77036,-0.40455 3.10603,-0.75068 0.4747,-0.48951 0.42024,-0.5255 -0.52917,-0.34973 -0.58208,0.10776 -3.36021,-0.0465 -6.17361,-0.3428 -3.49147,-0.36772 -6.47717,-0.4644 -9.40546,-0.30456 -4.7354,0.25848 -6.26874,-0.1282 -6.65796,-1.67897 -0.25346,-1.00986 0.63337,-3.12554 1.54083,-3.6759 0.3838,-0.23277 0.89086,-1.02652 1.1268,-1.76389 0.77004,-2.40654 1.86469,-3.98522 3.75072,-5.40919 1.01953,-0.76974 1.99485,-1.39954 2.16739,-1.39954 0.17255,0 0.82579,-0.25545 1.45166,-0.56768 1.25941,-0.62827 7.14064,-0.79819 7.89582,-0.22813 0.23279,0.17573 1.06276,0.50188 1.84438,0.72479 1.63174,0.46534 4.36058,2.86018 5.26693,4.62225 0.8117,1.57809 1.86476,4.81438 2.15292,6.61641 0.20023,1.2522 0.12197,1.51537 -0.60122,2.02176 -1.62971,1.14113 -4.19785,3.85741 -4.39691,4.65053 -0.11131,0.44351 -0.0971,1.13803 0.0315,1.54339 0.2593,0.81697 2.25098,1.7996 3.24726,1.60209 2.73802,-0.54284 2.91494,-0.51818 4.16637,0.58058 0.6806,0.59759 1.83236,1.22496 2.55945,1.39416 1.15818,0.26953 1.50403,0.18101 2.79107,-0.71434 1.59564,-1.11003 1.88231,-1.06902 1.88231,0.26928 0,1.29056 -1.43002,2.94584 -3.39155,3.92581 -1.82014,0.90933 -4.74971,1.11935 -9.45273,0.67766 l -2.08455,-0.19577 -0.54718,-1.71447 c -0.81075,-2.54031 -2.916,-4.5621 -5.26705,-5.05824 -2.25017,-0.47486 -3.95139,-0.50945 -3.95139,-0.0803 0,0.1728 0.51594,0.39946 1.14653,0.50368 4.27251,0.70615 4.78542,0.98169 6.32206,3.39635 1.15813,1.81987 1.25726,2.85022 0.35294,3.66861 -0.70065,0.63409 -1.33813,0.66274 -4.29375,0.19299 z m -4.07201,-8.80574 c -0.26356,-0.42644 -1.57244,-0.42769 -1.57244,-0.001 0,0.35735 1.0716,0.69098 1.50506,0.46859 0.14869,-0.0763 0.17901,-0.28648 0.0674,-0.4671 z m 3.99787,-6.28809 c 2.27957,-1.16344 2.72987,-1.9294 2.64601,-4.50087 -0.0998,-3.05994 -1.43472,-5.61489 -3.18642,-6.09856 -1.4603,-0.4032 -2.59655,-0.03 -3.32764,1.09292 -0.69273,1.06401 -1.09511,4.67697 -0.78296,7.03009 0.40301,3.03803 1.94352,3.85827 4.65101,2.47642 z m -3.23129,-2.59517 c -0.3196,-1.19261 -0.26472,-3.37176 0.0905,-3.59127 0.74528,-0.46061 1.61962,2.00316 1.24317,3.50307 -0.27546,1.09751 -1.04943,1.14869 -1.33363,0.0882 z m -5.24316,1.86691 c 1.06113,-0.88503 1.75667,-2.9557 1.85219,-5.51414 0.11994,-3.21216 0.0529,-3.53267 -0.82272,-3.93161 -1.04223,-0.47487 -1.63894,-0.13234 -2.87395,1.64978 -1.83202,2.64361 -1.88388,6.69629 -0.10165,7.94461 0.95579,0.66946 0.96619,0.66867 1.94613,-0.14864 z m -0.56061,-3.56585 c 0.0623,-0.63643 0.32313,-1.22606 0.57951,-1.31029 0.33659,-0.11059 0.43463,0.16844 0.35277,1.00399 -0.0623,0.63643 -0.32312,1.22607 -0.5795,1.3103 -0.3366,0.11059 -0.43464,-0.16844 -0.35278,-1.004 z m -6.80731,15.93975 c -2.08504,-2.08505 -1.80623,-3.07134 0.92345,-3.26667 l 1.76389,-0.12623 -0.0887,1.5875 c -0.12216,2.18648 -0.38415,3.175 -0.84147,3.175 -0.21316,0 -1.00389,-0.61632 -1.75717,-1.3696 z m 25.17739,-4.20202 c -1.42986,-0.14654 -2.06226,-1.13662 -1.45483,-2.27768 1.46213,-2.7466 3.10187,-3.68263 5.75441,-3.28486 2.84278,0.4263 4.03613,3.11693 1.59864,3.60443 -0.55656,0.11131 -1.28277,0.50166 -1.6138,0.86745 -0.33103,0.36578 -1.02177,0.66506 -1.53498,0.66506 -0.5132,0 -1.08391,0.12219 -1.26824,0.27153 -0.18432,0.14934 -0.85086,0.21868 -1.4812,0.15407 z m 4.03022,-7.29323 c -0.30202,-0.30202 -0.65248,-1.3013 -0.77879,-2.22061 -0.12631,-0.91932 -0.41105,-2.20205 -0.63277,-2.85052 -0.35264,-1.03139 -0.31807,-1.24123 0.27609,-1.67569 0.9824,-0.71835 2.42127,-0.61042 3.53432,0.26511 0.83757,0.65883 0.94367,0.94634 0.78521,2.12776 -0.20831,1.55304 -1.63343,4.60319 -2.23491,4.7833 -0.22001,0.0659 -0.64713,-0.12733 -0.94915,-0.42935 z m -2.45018,-7.85931 c -0.3357,-0.37095 -0.61036,-0.7938 -0.61036,-0.93966 0,-0.14587 -0.55563,-1.1023 -1.23473,-2.12541 -0.67909,-1.0231 -1.23472,-2.03165 -1.23472,-2.24121 0,-0.9904 3.91434,-0.5509 5.03,0.56476 0.56435,0.56435 0.64482,0.9585 0.44146,2.16219 -0.13678,0.80962 -0.59353,1.87292 -1.01499,2.3629 -0.75102,0.87311 -0.77846,0.87743 -1.37666,0.21643 z m -6.74935,-6.69846 c -0.56304,-0.29517 -2.03147,-0.61756 -3.26319,-0.71643 -2.46001,-0.19747 -2.99785,-0.85244 -1.26935,-1.54577 0.53357,-0.21403 1.31783,-0.54987 1.74278,-0.74631 1.80807,-0.83581 4.69541,0.88165 4.69541,2.79295 0,0.93757 -0.43461,0.98674 -1.90565,0.21556 z"
       id="path1567" />
  </g>
</svg>
