<?xml version="1.0" encoding="UTF-8" standalone="no"?>
<svg
   xmlns:dc="http://purl.org/dc/elements/1.1/"
   xmlns:cc="http://creativecommons.org/ns#"
   xmlns:rdf="http://www.w3.org/1999/02/22-rdf-syntax-ns#"
   xmlns:svg="http://www.w3.org/2000/svg"
   xmlns="http://www.w3.org/2000/svg"
   xmlns:sodipodi="http://sodipodi.sourceforge.net/DTD/sodipodi-0.dtd"
   xmlns:inkscape="http://www.inkscape.org/namespaces/inkscape"
   version="1.0"
   width="236.08282"
   height="120.89024"
   viewBox="-138.624 -137.291 236.08281 120.89023"
   id="Layer_1"
   xml:space="preserve"
   sodipodi:docname="DSub.svg"
   inkscape:version="1.0.2 (e86c870879, 2021-01-15)"><metadata
   id="metadata1271"><rdf:RDF><cc:Work
       rdf:about=""><dc:format>image/svg+xml</dc:format><dc:type
         rdf:resource="http://purl.org/dc/dcmitype/StillImage" /><dc:title></dc:title></cc:Work></rdf:RDF></metadata><sodipodi:namedview
   pagecolor="#ffffff"
   bordercolor="#666666"
   borderopacity="1"
   objecttolerance="10"
   gridtolerance="10"
   guidetolerance="10"
   inkscape:pageopacity="0"
   inkscape:pageshadow="2"
   inkscape:window-width="2138"
   inkscape:window-height="1053"
   id="namedview1269"
   showgrid="true"
   inkscape:zoom="3.0978256"
   inkscape:cx="90.303041"
   inkscape:cy="100.81449"
   inkscape:window-x="1920"
   inkscape:window-y="1073"
   inkscape:window-maximized="0"
   inkscape:current-layer="Layer_1"
   showguides="false"
   inkscape:document-units="mm"
   fit-margin-top="0"
   fit-margin-left="0"
   fit-margin-right="0"
   fit-margin-bottom="0"
   inkscape:snap-bbox="true"
   inkscape:snap-bbox-midpoints="false"
   inkscape:snap-grids="true"
   inkscape:document-rotation="0"
   inkscape:bbox-nodes="false"
   inkscape:bbox-paths="true"><inkscape:grid
     type="xygrid"
     id="grid1871"
     dotted="false"
     originx="-227.76676"
     originy="-165.05998" /></sodipodi:namedview><defs
   id="defs2584" />










<g
   id="g880"
   transform="rotate(-90,-80.79456,-86.26614)"><path
     id="path2261"
     style="fill:none;stroke:#ff00ff;stroke-width:0.755905;stroke-miterlimit:4;stroke-dasharray:none"
     d="m -109.42091,-73.279688 v 10.826168 h -1.84766 c -5.81893,0 -9.75173,4.68722 -8.74023,10.41797 l 2.4414,13.80664 c 1.01253,5.73179 1.99943,10.42383 7.81836,10.42383 h 0.32813 v 10.82812 h 48.175774 v -10.82812 h 0.2207 c 5.81789,0 6.90818,-4.691 7.92383,-10.42383 l 2.44336,-13.80664 c 1.01149,-5.73075 -2.91819,-10.41797 -8.74024,-10.41797 h -1.84765 v -10.826168 z" /><path
     d="m -111.26828,-136.891 c -5.81894,0 -9.75183,4.6871 -8.74033,10.41785 l 2.4421,13.80713 c 1.01253,5.73179 1.99934,10.42512 7.81828,10.42512 h 48.722874 c 5.81789,0 6.91001,-4.69229 7.92566,-10.42512 l 2.4421,-13.80713 c 1.01149,-5.73075 -2.91828,-10.41785 -8.74033,-10.41785 z"
     style="fill:none;stroke:#ff00ff;stroke-width:0.755905;stroke-miterlimit:4;stroke-dasharray:none"
     id="path2261-4"
     sodipodi:nodetypes="sccssccss" /><circle
     cx="-132.21661"
     cy="-119.56596"
     r="6.0073881"
     style="fill:none;stroke:#ff00ff;stroke-width:0.755905;stroke-miterlimit:4;stroke-dasharray:none"
     id="circle2265-1" /><circle
     cx="-38.448601"
     cy="-119.56596"
     r="6.0073881"
     style="fill:none;stroke:#ff00ff;stroke-width:0.755905;stroke-miterlimit:4;stroke-dasharray:none"
     id="circle2265-1-9" /><circle
     cx="-38.448601"
     cy="-45.129192"
     r="6.0073881"
     style="fill:none;stroke:#ff00ff;stroke-width:0.755905;stroke-miterlimit:4;stroke-dasharray:none"
     id="circle2265-1-9-3" /><circle
     cx="-132.21661"
     cy="-45.129192"
     r="6.0073881"
     style="fill:none;stroke:#ff00ff;stroke-width:0.755905;stroke-miterlimit:4;stroke-dasharray:none"
     id="circle2265-1-9-6" /><path
     id="path2261-2"
     style="fill:none;stroke:#ff00ff;stroke-width:0.755905;stroke-miterlimit:4;stroke-dasharray:none"
     d="m -113.16311,-5.7050141 v 12.9375 c -5.52706,0.273993 -9.19939,4.8347161 -8.21875,10.3906251 l 2.4414,13.806641 c 0.88017,4.982466 1.74519,9.175356 5.77735,10.187496 v 13.15039 h 52.914056 v -13.18164 c 3.96177,-1.05865 4.90033,-5.21695 5.77539,-10.156246 l 2.44336,-13.806641 c 0.98063,-5.555909 -2.68902,-10.1166321 -8.21875,-10.3906251 v -12.9375 z" /><circle
     cx="-39.821556"
     cy="24.529737"
     r="6.0073881"
     style="fill:none;stroke:#ff00ff;stroke-width:0.755905;stroke-miterlimit:4;stroke-dasharray:none"
     id="circle2265-1-9-3-2" /><circle
     cx="-133.58957"
     cy="24.529737"
     r="6.0073881"
     style="fill:none;stroke:#ff00ff;stroke-width:0.755905;stroke-miterlimit:4;stroke-dasharray:none"
     id="circle2265-1-9-6-4" /></g></svg>
