<?xml version="1.0" encoding="UTF-8" standalone="no"?>
<svg
   xmlns:dc="http://purl.org/dc/elements/1.1/"
   xmlns:cc="http://creativecommons.org/ns#"
   xmlns:rdf="http://www.w3.org/1999/02/22-rdf-syntax-ns#"
   xmlns:svg="http://www.w3.org/2000/svg"
   xmlns="http://www.w3.org/2000/svg"
   xmlns:sodipodi="http://sodipodi.sourceforge.net/DTD/sodipodi-0.dtd"
   xmlns:inkscape="http://www.inkscape.org/namespaces/inkscape"
   version="1.0"
   width="893.85706"
   height="133.52046"
   viewBox="-138.624 -137.291 893.85701 133.52045"
   id="Layer_1"
   xml:space="preserve"
   sodipodi:docname="testlaser.svg"
   inkscape:version="1.0.2 (e86c870879, 2021-01-15)"><metadata
   id="metadata1271"><rdf:RDF><cc:Work
       rdf:about=""><dc:format>image/svg+xml</dc:format><dc:type
         rdf:resource="http://purl.org/dc/dcmitype/StillImage" /><dc:title></dc:title></cc:Work></rdf:RDF></metadata><sodipodi:namedview
   pagecolor="#ffffff"
   bordercolor="#666666"
   borderopacity="1"
   objecttolerance="10"
   gridtolerance="10"
   guidetolerance="10"
   inkscape:pageopacity="0"
   inkscape:pageshadow="2"
   inkscape:window-width="2138"
   inkscape:window-height="1053"
   id="namedview1269"
   showgrid="true"
   inkscape:zoom="1.5489128"
   inkscape:cx="515.50394"
   inkscape:cy="82.441231"
   inkscape:window-x="3042"
   inkscape:window-y="853"
   inkscape:window-maximized="0"
   inkscape:current-layer="Layer_1"
   showguides="false"
   inkscape:document-units="mm"
   fit-margin-top="0"
   fit-margin-left="0"
   fit-margin-right="0"
   fit-margin-bottom="0"
   inkscape:snap-bbox="true"
   inkscape:snap-bbox-midpoints="false"
   inkscape:snap-grids="true"
   inkscape:document-rotation="0"
   inkscape:bbox-nodes="false"
   inkscape:bbox-paths="true"><inkscape:grid
     type="xygrid"
     id="grid1871"
     dotted="false"
     originx="-169.13384"
     originy="-154.33877" /></sodipodi:namedview><defs
   id="defs2584" />










<path
   id="path2261"
   style="fill:none;stroke:#ff0000;stroke-width:0.755905;stroke-miterlimit:4;stroke-dasharray:none"
   d="M -9.175183,-46.918585 H 1.650985 v 1.84766 c 0,5.81893 4.68722,9.75173 10.41797,8.74023 l 13.80664,-2.4414 c 5.73179,-1.01253 10.42383,-1.99943 10.42383,-7.81836 v -0.32813 h 10.82812 v -48.175774 h -10.82812 v -0.2207 c 0,-5.817891 -4.691,-6.908181 -10.42383,-7.923831 l -13.80664,-2.44336 c -5.73075,-1.01149 -10.41797,2.91819 -10.41797,8.740241 v 1.84765 H -9.175183 Z" /><path
   d="m -72.786495,-45.071215 c 0,5.81894 4.6871,9.75183 10.41785,8.74033 l 13.80713,-2.4421 c 5.73179,-1.01253 10.42512,-1.99934 10.42512,-7.81828 v -48.722874 c 0,-5.817891 -4.69229,-6.910011 -10.42512,-7.925661 l -13.80713,-2.4421 c -5.73075,-1.01149 -10.41785,2.91828 -10.41785,8.740331 z"
   style="fill:none;stroke:#ff0000;stroke-width:0.755905;stroke-miterlimit:4;stroke-dasharray:none"
   id="path2261-4"
   sodipodi:nodetypes="sccssccss" /><circle
   cx="24.122881"
   cy="-55.46146"
   r="6.0073881"
   style="fill:none;stroke:#ff0000;stroke-width:0.755905;stroke-miterlimit:4;stroke-dasharray:none"
   id="circle2265-1"
   transform="rotate(-90)" /><circle
   cx="117.89089"
   cy="-55.46146"
   r="6.0073881"
   style="fill:none;stroke:#ff0000;stroke-width:0.755905;stroke-miterlimit:4;stroke-dasharray:none"
   id="circle2265-1-9"
   transform="rotate(-90)" /><circle
   cx="117.89089"
   cy="18.975313"
   r="6.0073881"
   style="fill:none;stroke:#ff0000;stroke-width:0.755905;stroke-miterlimit:4;stroke-dasharray:none"
   id="circle2265-1-9-3"
   transform="rotate(-90)" /><circle
   cx="24.122881"
   cy="18.975313"
   r="6.0073881"
   style="fill:none;stroke:#ff0000;stroke-width:0.755905;stroke-miterlimit:4;stroke-dasharray:none"
   id="circle2265-1-9-6"
   transform="rotate(-90)" /><g
   id="g2661"><path
     id="path2261-2"
     style="fill:none;stroke:#ff0000;stroke-width:0.755905;stroke-miterlimit:4;stroke-dasharray:none"
     d="m 58.399491,-43.176385 h 12.9375 c 0.273993,5.52706 4.834716,9.19939 10.390625,8.21875 l 13.806641,-2.4414 c 4.982463,-0.88017 9.175353,-1.74519 10.187493,-5.77735 h 13.15039 V -96.090441 H 105.6905 c -1.05865,-3.961769 -5.21695,-4.900329 -10.156243,-5.775389 l -13.806641,-2.44336 c -5.555909,-0.98063 -10.116632,2.68902 -10.390625,8.218749 h -12.9375 z" /><circle
     cx="116.51794"
     cy="88.634239"
     r="6.0073881"
     style="fill:none;stroke:#ff0000;stroke-width:0.755905;stroke-miterlimit:4;stroke-dasharray:none"
     id="circle2265-1-9-3-2"
     transform="rotate(-90)" /><circle
     cx="22.749926"
     cy="88.634239"
     r="6.0073881"
     style="fill:none;stroke:#ff0000;stroke-width:0.755905;stroke-miterlimit:4;stroke-dasharray:none"
     id="circle2265-1-9-6-4"
     transform="rotate(-90)" /></g><path
   style="fill:#000000;stroke-width:1.33333"
   d="m 437.67517,-4.9863102 c -9.16406,-1.456441 -14.92357,-7.2577888 -17.49032,-17.6172838 -1.61254,-6.508271 -1.75635,-6.675401 -2.5002,-2.905474 -0.43408,2.200025 -0.0151,6.645392 0.934,9.878588 2.70364,9.2232938 2.57147,9.4547518 -5.39823,9.4547518 -8.78286,0 -19.16076,-2.994368 -21.61942,-6.2379208 -2.21594,-2.923313 -2.38579,-7.385725 -0.5348,-14.05043 2.0499,-7.380963 4.38708,-9.044976 12.7042,-9.044976 9.39549,0 9.35399,-2.075225 -0.0608,-3.046904 -4.01447,-0.414349 -7.91449,-1.133707 -8.66665,-1.598588 -1.97163,-1.21852 -1.68465,-7.316561 0.38162,-8.10943 0.96208,-0.36926 6.81211,0.443225 12.99999,1.805367 14.00598,3.083149 21.65964,2.864239 28.84482,-0.824957 3.46617,-1.779704 9.29866,-3.16698 15.33331,-3.647093 6.17794,-0.491528 10.47066,-1.529008 11.73933,-2.837216 1.79414,-1.850116 1.58831,-1.986141 -2.00001,-1.321814 -2.19999,0.407282 -12.70001,-0.175748 -23.33333,-1.295622 -13.19611,-1.389807 -24.48064,-1.755212 -35.54819,-1.151092 -17.89758,0.976932 -23.69288,-0.484536 -25.16394,-6.345713 -0.95796,-3.816793 2.39383,-11.813063 5.8236,-13.893163 1.45059,-0.87976 3.36703,-3.87976 4.25878,-6.66667 2.91038,-9.095586 7.04764,-15.062246 14.17594,-20.44417 3.85335,-2.90926 7.53959,-5.2896 8.19171,-5.2896 0.65216,0 3.1211,-0.96548 5.48659,-2.14557 4.75998,-2.37456 26.98825,-3.01678 29.84247,-0.86222 0.87984,0.66418 4.01673,1.89687 6.97088,2.73936 6.16721,1.75877 16.48094,10.810124 19.90651,17.469914 3.06784,5.964436 7.04791,18.196086 8.13702,25.006906 0.75677,4.732721 0.46099,5.727379 -2.27233,7.641294 -6.15953,4.312932 -15.86589,14.579187 -16.61824,17.576805 -0.4207,1.676258 -0.36699,4.301216 0.11906,5.833285 0.98003,3.08776 8.50764,6.801637 12.2731,6.055143 10.34843,-2.051679 11.0171,-1.958476 15.74691,2.194318 2.57235,2.258608 6.92546,4.62977 9.67351,5.269266 4.37738,1.018696 5.68453,0.684132 10.54893,-2.699868 6.03076,-4.195389 7.11424,-4.04039 7.11424,1.017751 0,4.877707 -5.4048,11.133883 -12.81845,14.837706 -6.87927,3.4368378 -17.95166,4.2306138 -35.72686,2.5612348 l -7.87861,-0.739918 -2.06808,-6.4798868 c -3.06425,-9.601171 -11.0211,-17.242581 -19.90696,-19.117756 -8.50458,-1.794746 -14.93439,-1.92548 -14.93439,-0.303496 0,0.653103 1.95001,1.50977 4.33335,1.903673 16.14806,2.668913 18.08662,3.710324 23.89439,12.836597 4.37719,6.878248 4.75185,10.7724838 1.33395,13.8656118 -2.64813,2.39656 -5.0575,2.504844 -16.22835,0.729411 z M 422.2849,-38.267845 c -0.99613,-1.611742 -5.94308,-1.616466 -5.94308,-0.0038 0,1.350614 4.05014,2.611578 5.68842,1.771049 0.56198,-0.288378 0.67657,-1.082759 0.25474,-1.765417 z m 15.11006,-23.766008 c 8.6157,-4.397257 10.31762,-7.292217 10.00067,-17.011157 -0.3772,-11.565126 -5.42257,-21.22162 -12.04316,-23.04967 -5.51925,-1.5239 -9.81374,-0.11338 -12.57691,4.130714 -2.61819,4.02146 -4.139,17.676736 -2.95922,26.570416 1.52319,11.482317 7.34559,14.582437 17.57862,9.359697 z m -12.21275,-9.808517 c -1.20794,-4.5075 -1.00051,-12.74366 0.34205,-13.5733 2.81681,-1.74089 6.1214,7.571 4.69859,13.23995 -1.0411,4.14807 -3.96635,4.3415 -5.04049,0.33335 z m -19.81666,7.056038 c 4.01057,-3.344998 6.63938,-11.171148 7.0004,-20.840838 0.45331,-12.140446 0.19994,-13.351826 -3.10949,-14.85962 -3.93914,-1.79479 -6.19442,-0.50018 -10.86218,6.235384 -6.92417,9.991586 -7.12017,25.308806 -0.38419,30.026863 3.61244,2.530243 3.65175,2.527257 7.35546,-0.561789 z M 403.2467,-78.26356 c 0.23547,-2.4054 1.22128,-4.63393 2.19028,-4.95228 1.27215,-0.41797 1.64269,0.63663 1.3333,3.79461 -0.23546,2.40541 -1.22124,4.63397 -2.19023,4.95232 -1.27219,0.41797 -1.64274,-0.63663 -1.33335,-3.79465 z m -25.72841,60.244721 c -7.88046,-7.880503 -6.82669,-11.608213 3.49021,-12.346468 l 6.66667,-0.47709 -0.33525,6 c -0.46171,8.263861 -1.4519,11.999999 -3.18036,11.999999 -0.80564,0 -3.79423,-2.329398 -6.64127,-5.176441 z m 95.15863,-15.881649 c -5.40419,-0.553852 -7.79436,-4.295886 -5.49857,-8.608554 5.52616,-10.380849 11.72361,-13.9186 21.74895,-12.415218 10.74437,1.611213 15.25467,11.780522 6.04211,13.623042 -2.10354,0.420699 -4.84827,1.896037 -6.0994,3.278551 -1.25114,1.382475 -3.86181,2.513612 -5.8015,2.513612 -1.93966,0 -4.09667,0.461821 -4.79335,1.026255 -0.69664,0.564435 -3.21585,0.826507 -5.59824,0.582312 z m 15.23233,-27.564962 c -1.14149,-1.141493 -2.46607,-4.9183 -2.94346,-8.39286 -0.47739,-3.47459 -1.55357,-8.3227 -2.39157,-10.77361 -1.33281,-3.89817 -1.20215,-4.69127 1.04349,-6.33332 3.71301,-2.715016 9.15126,-2.3071 13.35806,1.00199 3.16562,2.49007 3.56663,3.57672 2.96772,8.04193 -0.78731,5.86975 -6.17359,17.397879 -8.4469,18.07861 -0.83154,0.249071 -2.44585,-0.481247 -3.58734,-1.62274 z m -9.26052,-29.704476 c -1.26879,-1.40201 -2.30687,-3.00019 -2.30687,-3.55147 0,-0.55132 -2.10002,-4.16617 -4.6667,-8.033034 -2.56664,-3.86684 -4.66666,-7.67868 -4.66666,-8.47072 0,-3.74324 14.79436,-2.08214 19.01102,2.13453 2.13298,2.13298 2.43712,3.62268 1.66851,8.17206 -0.51696,3.059974 -2.24326,7.078744 -3.83618,8.930634 -2.8385,3.299936 -2.94221,3.316266 -5.20312,0.818 z m -25.50935,-25.317004 c -2.12803,-1.1156 -7.678,-2.33408 -12.33332,-2.70777 -9.29768,-0.74634 -11.33046,-3.22182 -4.79754,-5.84228 2.01664,-0.80893 4.98077,-2.07824 6.58688,-2.82069 6.83365,-3.15897 17.74643,3.33222 17.74643,10.55603 0,3.54357 -1.64262,3.72941 -7.20245,0.81471 z"
   id="path1567" /><g
   id="g5236"
   transform="matrix(3.7795273,0,0,3.7795273,-1020.2364,-940.98703)"><path
     d="m 308.87352,218.64532 0.10583,0.10584 z m 0.40216,-2.09549 h -0.29633 V 216.444 h 0.29633 z m -0.99483,0.29633 q 0.11642,0.0741 0.13759,0.10583 0.0212,0.0318 0.0529,0.1905 -0.15875,-0.0318 -0.1905,-0.0529 -0.0317,-0.0212 -0.10583,-0.14817 z m 0.59267,0 q 0.0953,0.10583 0.10583,0.29633 -0.14817,-0.10583 -0.14817,-0.13758 0,-0.0106 0,-0.0317 0.0106,-0.0212 0.0212,-0.0529 0.0106,-0.0423 0.0212,-0.0741 z m 2.20132,1.00541 q 0.10584,0.14817 0.10584,0.39159 h -0.10584 z m 0.0423,0.66675 q 0.0423,-0.0423 0.0423,0.0318 0,0.0635 -0.0212,0.0212 -0.0318,-0.0423 -0.0212,-0.0529 z m -2.53999,-2.87865 q -0.0317,0.0212 -0.0741,0.0529 -0.0318,0.0212 -0.0423,0.0318 -0.0106,0 -0.0423,0.0106 -0.0212,0.0106 -0.0529,0.0106 -0.0317,0 -0.0847,0 -0.16933,0.24341 -0.1905,0.49741 -0.14816,0 -0.31749,0.10584 -0.0635,0.1905 -0.0635,0.30691 0,0.15875 0.27516,0.1905 -0.0317,0.0529 -0.10583,0.15875 -0.0635,0.10583 -0.10583,0.17992 -0.0423,0.0635 -0.0423,0.11641 0,0.11642 0.254,0.14817 -0.0423,0.11642 -0.0635,0.13758 -0.0212,0.0212 -0.14816,0.0635 0.0317,0.14817 0.0529,0.1905 0.0318,0.0317 0.15875,0.10583 v 0.40217 q 0.21167,0.0212 0.48683,0.20108 0.0212,-0.0529 0.0741,-0.15875 0.0529,-0.10583 0.0741,-0.14816 0.0317,-0.0423 0.0847,-0.10584 0.0529,-0.0741 0.11641,-0.11641 0.0635,-0.0423 0.15875,-0.0741 l -0.1905,0.49742 q 0.0317,0.0212 0.0635,0.0529 0.0423,0.0212 0.0529,0.0317 0.0106,0 0.0318,0.0106 0.0317,0.0106 0.0635,0.0106 0.0317,0 0.0847,0 v -0.20108 l 0.29634,0.0953 q -0.0212,-0.10583 -0.0212,-0.26458 0,-0.13759 0.0212,-0.23284 v -0.20108 q -0.0212,-0.0318 -0.0529,-0.0635 -0.0212,-0.0423 -0.0317,-0.0529 0,-0.0106 -0.0106,-0.0318 -0.0106,-0.0317 -0.0106,-0.0635 0,-0.0317 0,-0.0847 0.33867,-0.0423 0.33867,-0.20108 0,-0.0847 -0.127,-0.20109 v -0.10583 q 0.0106,0 0.0423,-0.0106 0.0953,-0.0317 0.11642,-0.0952 0.0106,-0.0106 0.0212,-0.0423 0.0106,-0.0317 0.0106,-0.0423 l -0.29633,-0.10583 0.10583,-0.40217 q -0.10583,-0.1905 -0.10583,-0.40216 l -0.40217,-0.20108 z m -2.39183,-2.99508 q 0.49742,0.0952 0.80433,0.0952 l 0.0847,0.20108 h 0.21166 q 0.15875,0.15875 0.29634,0.20109 -0.0106,0.29633 -0.10584,0.49741 0.127,0.0635 0.21167,0.20108 -0.0635,0.381 -0.0635,0.49742 0,0.17992 0.0635,0.40216 0.24341,-0.0952 0.6985,-0.0952 0.0635,-0.0635 0.29633,-0.20109 h 0.40216 v 0.0952 h 0.29634 q 0.0317,0.0212 0.0635,0.0529 0.0423,0.0212 0.0529,0.0318 0.0106,0 0.0317,0.0106 0.0317,0.0106 0.0635,0.0106 0.0317,0 0.0847,0 0.17992,0.19049 0.29633,0.40216 0.16933,0 0.3175,0.0952 l 0.1905,0.30692 v 0.39158 q 0.10583,0.0635 0.29633,0.30691 v 0.49742 h 0.10584 v 0.29633 q 0.0952,0.10583 0.10583,0.30692 v 0.0952 l -0.21167,0.10583 v 0.60325 h 0.10584 v 0.39158 q -0.15875,0.15875 -0.29634,0.20108 l -0.10583,0.40217 -0.10583,0.10583 -0.29634,0.0952 -0.10583,0.0952 v 0.30692 l -0.1905,0.20108 q -0.24341,0.0212 -0.508,0.20108 l -0.40216,-0.10583 q -0.13758,0.10583 -0.40217,0.10583 h -0.0847 v -0.20108 h -0.508 v -0.10583 q -0.29633,0 -0.59267,-0.0952 -0.13758,0.16933 -0.3175,0.16933 -0.24341,0 -0.69849,-0.47625 0.0741,-0.1905 0.21166,-0.29633 0,-0.0529 0,-0.0847 0,-0.0317 -0.0106,-0.0529 -0.0106,-0.0317 -0.0212,-0.0423 0,-0.0106 -0.0318,-0.0423 -0.0212,-0.0423 -0.0423,-0.0741 v -0.10584 q 0.0953,-0.1905 0.10583,-0.40216 h -0.10583 v -0.59267 h -0.10583 v -0.40216 h 0.10583 v -0.89958 q 0.14817,-0.24342 0.21167,-0.30692 -0.0106,-0.28575 -0.10584,-0.49741 v -0.0952 q 0.127,-0.30692 0.127,-0.68792 0,-0.381 -0.127,-0.81491 -0.0212,0.0106 -0.0529,0.0318 -0.0212,0.0212 -0.0318,0.0317 -0.0106,0 -0.0317,0.0106 -0.0106,0.0106 -0.0212,0.0106 -0.0106,0 -0.0212,0.0106 -0.0106,0 -0.0423,0 -0.0212,0 -0.0423,0 -0.0106,0 -0.0529,0 l -0.10583,-0.29634 h -0.59267 l -0.10583,-0.10583 q 0,-0.42333 0.1905,-0.79375 0.23283,0.0106 0.40216,0.0952 z"
     style="font-style:normal;font-variant:normal;font-weight:normal;font-stretch:normal;font-size:10.5833px;line-height:1.25;font-family:GNUTypewriter;-inkscape-font-specification:'GNUTypewriter, Normal';font-variant-ligatures:normal;font-variant-caps:normal;font-variant-numeric:normal;font-variant-east-asian:normal;fill:#000000;fill-opacity:1;stroke:none;stroke-width:0.264583"
     id="path4522" /><path
     d="m 315.39282,219.24857 q 0.11642,0.0741 0.13758,0.10583 0.0212,0.0317 0.0529,0.1905 -0.15875,-0.0318 -0.1905,-0.0529 -0.0317,-0.0212 -0.10583,-0.14817 z m -1.50283,-0.80433 v 0.10583 h 0.40217 v -0.10583 z m -1.97908,-3.91582 0.77258,0.11642 q 0.0953,-0.0952 0.29634,-0.10584 0.26458,0.17992 0.508,0.20108 0.21166,0.34925 0.21166,0.80434 0.11642,-0.0423 0.16933,-0.0423 0.0212,0 0.0423,0.0212 0.0317,0.0106 0.0847,0.0318 l 0.0212,0.14817 q -0.0529,0.0212 -0.0847,0.0635 -0.0212,0.0317 -0.0423,0.0317 -0.0847,0 -0.30691,-0.15874 -0.0106,0.0423 -0.0106,0.25399 v 0.0952 q 0,0.254 -0.0847,0.35984 v 0.0952 l 0.0953,0.20108 -0.0953,0.29633 q 0.0953,0.14817 0.0953,0.26458 0,0.10584 -0.0953,0.33867 l 0.21166,0.20108 -0.11641,0.29633 0.30691,0.30692 h 0.21167 q 0.0529,-0.16933 0.1905,-0.30692 0.14816,0.0318 0.17991,0.0529 0.0423,0.0212 0.11642,0.14817 0.16933,-0.0847 0.40216,-0.0952 0.0635,-0.14817 0.0952,-0.15875 0.0318,-0.0212 0.20109,-0.0423 -0.0847,-0.12699 -0.0847,-0.29633 l 0.29633,-0.10583 -0.10583,-0.49742 q 0.15875,-0.11641 0.254,-0.37041 0.0953,-0.254 0.14816,-0.32808 -0.0423,-0.11642 -0.0423,-0.1905 0,-0.0741 0.0423,-0.21167 -0.14816,-0.127 -0.29633,-0.40216 h -0.0847 q -0.11642,0 -0.21167,-0.10584 h -0.508 v -0.0952 l -0.15875,-0.11641 q 0.0317,-0.10584 0.0423,-0.23284 0.0106,-0.13758 0.0423,-0.21166 0.0423,-0.0847 0.15875,-0.17992 l 0.32808,-0.0529 0.28575,-0.0106 h 0.10583 q 0.0529,0.0635 0.13759,0.0212 0.0953,-0.0423 0.13758,-0.0423 0.0212,0 0.0953,-0.0106 0.0847,-0.0212 0.11641,-0.0212 0.11642,0.0529 0.35984,0.0529 0.0635,0 0.1905,0 0.127,-0.0106 0.17991,-0.0106 l -0.0212,0.41275 q 0,0.15875 0.0953,0.30691 v 0.49742 q -0.0953,0.22225 -0.0953,0.65616 v 0.14817 h 0.0953 v 0.29633 q -0.0953,0.16933 -0.0953,0.40217 h 0.0953 v 0.59266 h -0.0953 v 0.508 q 0.0106,0 0.0212,0.0106 0.0741,0.0529 0.0529,0.0847 l -0.0741,0.10583 q 0.15874,0.0423 0.30691,0.0423 0.13758,0 0.29633,-0.0423 0.23284,0.14817 0.40217,0.20109 0,0.24341 -0.10583,0.39158 l 0.10583,0.30691 q -0.16933,0.16934 -0.21167,0.29634 -0.21166,0.0106 -0.40216,0.10583 h -0.1905 l -0.10583,-0.10583 h -0.29634 q -0.0317,0.0212 -0.0741,0.0529 -0.0317,0.0212 -0.0423,0.0317 -0.0106,0 -0.0423,0.0106 -0.0212,0.0106 -0.0529,0.0106 -0.0317,0 -0.0847,0 -0.16933,-0.16933 -0.21167,-0.30692 l -0.14816,0.0952 -0.14817,-0.0952 q 0.10583,-0.28575 0.10583,-0.49741 -0.22224,0.0952 -0.50799,0.0952 -0.10584,0.27516 -0.40217,0.60325 -0.0529,0 -0.0847,0 -0.0317,0 -0.0635,0.0106 -0.0212,0.0106 -0.0317,0.0212 -0.0106,0 -0.0529,0.0318 -0.0317,0.0212 -0.0635,0.0423 h -0.40217 v 0.0952 h -0.29633 q -0.13758,-0.0423 -0.254,-0.0423 -0.0635,0 -0.33866,0.0423 -0.0212,-0.0317 -0.0529,-0.0635 -0.0212,-0.0423 -0.0317,-0.0529 0,-0.0106 -0.0106,-0.0317 -0.0106,-0.0318 -0.0106,-0.0635 0,-0.0317 0,-0.0847 h -0.40216 q -0.0635,-0.26459 -0.40217,-0.80433 0,-0.0529 0,-0.0847 0,-0.0318 -0.0106,-0.0529 -0.0106,-0.0318 -0.0212,-0.0423 0,-0.0106 -0.0317,-0.0423 -0.0212,-0.0423 -0.0423,-0.0741 v -0.40216 h 0.10583 v -0.80433 h -0.10583 v -0.29634 q 0.127,-0.28574 0.127,-0.69849 0,-0.0847 -0.0106,-0.254 -0.0106,-0.16934 -0.0106,-0.254 -0.10583,-0.0529 -0.1905,-0.20108 l -0.34925,-0.10584 q -0.0318,-0.0106 -0.0318,-0.0635 0,-0.0317 0.0212,-0.11641 0.0317,-0.0952 0.0317,-0.14817 0,-0.0635 -0.0212,-0.0952 l -0.0423,-0.11642 q 0.0423,-0.0847 0.0529,-0.14816 0.0212,-0.0635 0.0317,-0.14817 0.0106,-0.0953 0.0212,-0.16933 z"
     style="font-style:normal;font-variant:normal;font-weight:normal;font-stretch:normal;font-size:10.5833px;line-height:1.25;font-family:GNUTypewriter;-inkscape-font-specification:'GNUTypewriter, Normal';font-variant-ligatures:normal;font-variant-caps:normal;font-variant-numeric:normal;font-variant-east-asian:normal;fill:#000000;fill-opacity:1;stroke:none;stroke-width:0.264583"
     id="path4524" /><path
     d="m 321.99679,218.64532 0.10583,0.10584 z m 0.40216,-2.09549 h -0.29633 V 216.444 h 0.29633 z m -0.99483,0.29633 q 0.11642,0.0741 0.13759,0.10583 0.0212,0.0318 0.0529,0.1905 -0.15875,-0.0318 -0.1905,-0.0529 -0.0317,-0.0212 -0.10583,-0.14817 z m 0.59267,0 q 0.0953,0.10583 0.10583,0.29633 -0.14817,-0.10583 -0.14817,-0.13758 0,-0.0106 0,-0.0317 0.0106,-0.0212 0.0212,-0.0529 0.0106,-0.0423 0.0212,-0.0741 z m 2.20132,1.00541 q 0.10584,0.14817 0.10584,0.39159 h -0.10584 z m 0.0423,0.66675 q 0.0423,-0.0423 0.0423,0.0318 0,0.0635 -0.0212,0.0212 -0.0318,-0.0423 -0.0212,-0.0529 z m -2.54,-2.87865 q -0.0317,0.0212 -0.0741,0.0529 -0.0317,0.0212 -0.0423,0.0318 -0.0106,0 -0.0423,0.0106 -0.0212,0.0106 -0.0529,0.0106 -0.0317,0 -0.0847,0 -0.16933,0.24341 -0.1905,0.49741 -0.14816,0 -0.3175,0.10584 -0.0635,0.1905 -0.0635,0.30691 0,0.15875 0.27517,0.1905 -0.0318,0.0529 -0.10583,0.15875 -0.0635,0.10583 -0.10584,0.17992 -0.0423,0.0635 -0.0423,0.11641 0,0.11642 0.254,0.14817 -0.0423,0.11642 -0.0635,0.13758 -0.0212,0.0212 -0.14817,0.0635 0.0317,0.14817 0.0529,0.1905 0.0317,0.0317 0.15875,0.10583 v 0.40217 q 0.21167,0.0212 0.48683,0.20108 0.0212,-0.0529 0.0741,-0.15875 0.0529,-0.10583 0.0741,-0.14816 0.0317,-0.0423 0.0847,-0.10584 0.0529,-0.0741 0.11642,-0.11641 0.0635,-0.0423 0.15875,-0.0741 l -0.1905,0.49742 q 0.0317,0.0212 0.0635,0.0529 0.0423,0.0212 0.0529,0.0317 0.0106,0 0.0317,0.0106 0.0317,0.0106 0.0635,0.0106 0.0317,0 0.0847,0 v -0.20108 l 0.29634,0.0953 q -0.0212,-0.10583 -0.0212,-0.26458 0,-0.13759 0.0212,-0.23284 v -0.20108 q -0.0212,-0.0318 -0.0529,-0.0635 -0.0212,-0.0423 -0.0317,-0.0529 0,-0.0106 -0.0106,-0.0318 -0.0106,-0.0317 -0.0106,-0.0635 0,-0.0317 0,-0.0847 0.33867,-0.0423 0.33867,-0.20108 0,-0.0847 -0.127,-0.20109 v -0.10583 q 0.0106,0 0.0423,-0.0106 0.0953,-0.0317 0.11642,-0.0952 0.0106,-0.0106 0.0212,-0.0423 0.0106,-0.0317 0.0106,-0.0423 l -0.29633,-0.10583 0.10583,-0.40217 q -0.10583,-0.1905 -0.10583,-0.40216 l -0.40217,-0.20108 z m -2.39182,-2.99508 q 0.49741,0.0952 0.80433,0.0952 l 0.0847,0.20108 h 0.21166 q 0.15875,0.15875 0.29633,0.20109 -0.0106,0.29633 -0.10583,0.49741 0.127,0.0635 0.21167,0.20108 -0.0635,0.381 -0.0635,0.49742 0,0.17992 0.0635,0.40216 0.24341,-0.0952 0.6985,-0.0952 0.0635,-0.0635 0.29633,-0.20109 h 0.40216 v 0.0952 h 0.29634 q 0.0317,0.0212 0.0635,0.0529 0.0423,0.0212 0.0529,0.0318 0.0106,0 0.0317,0.0106 0.0318,0.0106 0.0635,0.0106 0.0317,0 0.0847,0 0.17991,0.19049 0.29633,0.40216 0.16933,0 0.3175,0.0952 l 0.1905,0.30692 v 0.39158 q 0.10583,0.0635 0.29633,0.30691 v 0.49742 h 0.10583 v 0.29633 q 0.0953,0.10583 0.10584,0.30692 v 0.0952 l -0.21167,0.10583 v 0.60325 h 0.10583 v 0.39158 q -0.15875,0.15875 -0.29633,0.20108 l -0.10583,0.40217 -0.10583,0.10583 -0.29634,0.0952 -0.10583,0.0952 v 0.30692 l -0.1905,0.20108 q -0.24341,0.0212 -0.508,0.20108 l -0.40216,-0.10583 q -0.13759,0.10583 -0.40217,0.10583 h -0.0847 v -0.20108 h -0.508 v -0.10583 q -0.29634,0 -0.59267,-0.0952 -0.13758,0.16933 -0.3175,0.16933 -0.24341,0 -0.69849,-0.47625 0.0741,-0.1905 0.21166,-0.29633 0,-0.0529 0,-0.0847 0,-0.0317 -0.0106,-0.0529 -0.0106,-0.0317 -0.0212,-0.0423 0,-0.0106 -0.0318,-0.0423 -0.0212,-0.0423 -0.0423,-0.0741 v -0.10584 q 0.0953,-0.1905 0.10583,-0.40216 h -0.10583 v -0.59267 h -0.10583 v -0.40216 h 0.10583 v -0.89958 q 0.14816,-0.24342 0.21166,-0.30692 -0.0106,-0.28575 -0.10583,-0.49741 v -0.0952 q 0.127,-0.30692 0.127,-0.68792 0,-0.381 -0.127,-0.81491 -0.0212,0.0106 -0.0529,0.0318 -0.0212,0.0212 -0.0317,0.0317 -0.0106,0 -0.0318,0.0106 -0.0106,0.0106 -0.0212,0.0106 -0.0106,0 -0.0212,0.0106 -0.0106,0 -0.0423,0 -0.0212,0 -0.0423,0 -0.0106,0 -0.0529,0 l -0.10583,-0.29634 h -0.59267 l -0.10583,-0.10583 q 0,-0.42333 0.1905,-0.79375 0.23283,0.0106 0.40216,0.0952 z"
     style="font-style:normal;font-variant:normal;font-weight:normal;font-stretch:normal;font-size:10.5833px;line-height:1.25;font-family:GNUTypewriter;-inkscape-font-specification:'GNUTypewriter, Normal';font-variant-ligatures:normal;font-variant-caps:normal;font-variant-numeric:normal;font-variant-east-asian:normal;fill:#000000;fill-opacity:1;stroke:none;stroke-width:0.264583"
     id="path4526" /><path
     d="m 326.3571,212.76101 h 0.21166 l 0.10583,0.0952 h 0.1905 q 0.127,-0.10584 0.4445,-0.10584 0.0635,0 0.17992,0.0106 0.11642,0 0.17992,0 v 0.0952 h 0.48683 l 0.21166,0.40216 v 0.60325 l 0.20109,0.10583 q -0.0212,0.48684 -0.20109,0.6985 v 0.20108 q 0.0741,0.11642 0.11642,0.35984 0.0423,0.24341 0.0847,0.33866 l -0.0952,0.40217 q 0.0847,0.11641 0.0847,0.20108 0,0.0847 -0.0847,0.20108 l 0.0952,0.40217 q -0.0847,0.16933 -0.0847,0.20108 0,0.0423 0.0847,0.1905 -0.0423,0.11642 -0.0635,0.13758 -0.0212,0.0212 -0.13759,0.0635 0.10584,0.10584 0.29634,0.508 v 0.0952 q -0.0953,0.16933 -0.0953,0.40217 h -0.0952 l 0.0952,0.60324 q 0.26458,-0.19049 0.60324,-0.20108 0.0106,-0.0212 0.0212,-0.0529 0.0423,-0.0635 0.16933,-0.14817 0.29634,0.0953 0.61383,0.0953 l 0.0847,0.10583 h 0.21167 q 0.0953,-0.0953 0.29633,-0.10583 -0.0529,0.17992 -0.0953,0.22225 -0.0317,0.0317 -0.20108,0.0847 0.0741,0.15875 0.29633,0.39159 v 0.30691 l -0.1905,0.20109 q -0.0847,0 -0.30692,0.0106 -0.21166,0.0106 -0.32808,0.0106 -0.39158,0 -0.5715,-0.127 l -0.40216,0.10584 q -0.27517,-0.10584 -0.65617,-0.10584 h -0.254 v 0.10584 h -0.40216 v -0.10584 h -0.59267 v 0.10584 h -0.40216 v 0.0952 h -0.40217 q -0.24341,-0.17991 -0.50799,-0.29633 v -0.20108 q 0.16933,-0.10583 0.31749,-0.10583 l -0.21166,-0.49742 0.508,0.10583 0.10583,-0.20108 h 0.0847 l 0.10583,0.20108 h 0.10583 q 0.127,-0.15874 0.23283,-0.15874 0.0635,0 0.254,0.0529 0.0635,-0.13758 0.127,-0.17991 0.0741,-0.0529 0.27517,-0.11642 l -0.1905,-0.30692 v -0.59266 q 0.0317,-0.0741 0.0741,-0.29633 0.0529,-0.22225 0.11642,-0.30692 0,-0.16933 -0.0847,-0.29633 0,-0.17992 0.0847,-0.30692 v -0.0952 l -0.1905,-0.10583 0.10583,-0.60325 q 0,-0.0106 0.0106,-0.0423 0.0317,-0.0953 0.0952,-0.11642 0.0106,-0.0106 0.0423,-0.0212 0.0317,-0.0106 0.0423,-0.0106 -0.127,-0.27516 -0.24341,-0.35983 -0.0212,-0.0212 -0.0529,-0.0423 0.0106,-0.0529 0.0106,-0.13759 0.0106,-0.0847 0.0106,-0.13758 0.0106,-0.0529 0.0317,-0.11641 0.0212,-0.0635 0.0529,-0.11642 v -0.20108 q -0.10583,-0.13759 -0.10583,-0.39159 v -0.10583 q -0.15875,-0.0318 -0.1905,-0.0529 -0.0317,-0.0212 -0.10583,-0.14816 h -0.21167 q -0.17991,0.23283 -0.71966,0.23283 -0.127,0 -0.35984,-0.0106 -0.22224,-0.0212 -0.31749,-0.0212 0,-0.254 0.10583,-0.40216 v -0.0952 q -0.10583,-0.13759 -0.10583,-0.40217 v -0.10583 q 0.0635,0 0.16933,0.0106 0.10583,0 0.16933,0 0.39158,0 0.65617,-0.10583 z"
     style="font-style:normal;font-variant:normal;font-weight:normal;font-stretch:normal;font-size:10.5833px;line-height:1.25;font-family:GNUTypewriter;-inkscape-font-specification:'GNUTypewriter, Normal';font-variant-ligatures:normal;font-variant-caps:normal;font-variant-numeric:normal;font-variant-east-asian:normal;fill:#000000;fill-opacity:1;stroke:none;stroke-width:0.264583"
     id="path4528" /><path
     d="m 335.12006,218.64532 0.10583,0.10584 z m 0.40216,-2.09549 h -0.29633 V 216.444 h 0.29633 z m -0.99483,0.29633 q 0.11642,0.0741 0.13758,0.10583 0.0212,0.0318 0.0529,0.1905 -0.15875,-0.0318 -0.1905,-0.0529 -0.0318,-0.0212 -0.10583,-0.14817 z m 0.59267,0 q 0.0952,0.10583 0.10583,0.29633 -0.14817,-0.10583 -0.14817,-0.13758 0,-0.0106 0,-0.0317 0.0106,-0.0212 0.0212,-0.0529 0.0106,-0.0423 0.0212,-0.0741 z m 2.20132,1.00541 q 0.10584,0.14817 0.10584,0.39159 h -0.10584 z m 0.0423,0.66675 q 0.0423,-0.0423 0.0423,0.0318 0,0.0635 -0.0212,0.0212 -0.0317,-0.0423 -0.0212,-0.0529 z m -2.54,-2.87865 q -0.0317,0.0212 -0.0741,0.0529 -0.0317,0.0212 -0.0423,0.0318 -0.0106,0 -0.0423,0.0106 -0.0212,0.0106 -0.0529,0.0106 -0.0317,0 -0.0847,0 -0.16933,0.24341 -0.1905,0.49741 -0.14816,0 -0.3175,0.10584 -0.0635,0.1905 -0.0635,0.30691 0,0.15875 0.27517,0.1905 -0.0317,0.0529 -0.10583,0.15875 -0.0635,0.10583 -0.10584,0.17992 -0.0423,0.0635 -0.0423,0.11641 0,0.11642 0.254,0.14817 -0.0423,0.11642 -0.0635,0.13758 -0.0212,0.0212 -0.14817,0.0635 0.0317,0.14817 0.0529,0.1905 0.0317,0.0317 0.15875,0.10583 v 0.40217 q 0.21167,0.0212 0.48683,0.20108 0.0212,-0.0529 0.0741,-0.15875 0.0529,-0.10583 0.0741,-0.14816 0.0317,-0.0423 0.0847,-0.10584 0.0529,-0.0741 0.11642,-0.11641 0.0635,-0.0423 0.15875,-0.0741 l -0.1905,0.49742 q 0.0317,0.0212 0.0635,0.0529 0.0423,0.0212 0.0529,0.0317 0.0106,0 0.0317,0.0106 0.0317,0.0106 0.0635,0.0106 0.0318,0 0.0847,0 v -0.20108 l 0.29633,0.0953 q -0.0212,-0.10583 -0.0212,-0.26458 0,-0.13759 0.0212,-0.23284 v -0.20108 q -0.0212,-0.0318 -0.0529,-0.0635 -0.0212,-0.0423 -0.0317,-0.0529 0,-0.0106 -0.0106,-0.0318 -0.0106,-0.0317 -0.0106,-0.0635 0,-0.0317 0,-0.0847 0.33867,-0.0423 0.33867,-0.20108 0,-0.0847 -0.127,-0.20109 v -0.10583 q 0.0106,0 0.0423,-0.0106 0.0952,-0.0317 0.11642,-0.0952 0.0106,-0.0106 0.0212,-0.0423 0.0106,-0.0317 0.0106,-0.0423 l -0.29634,-0.10583 0.10584,-0.40217 q -0.10584,-0.1905 -0.10584,-0.40216 l -0.40216,-0.20108 z m -2.39182,-2.99508 q 0.49741,0.0952 0.80433,0.0952 l 0.0847,0.20108 h 0.21166 q 0.15875,0.15875 0.29633,0.20109 -0.0106,0.29633 -0.10583,0.49741 0.127,0.0635 0.21167,0.20108 -0.0635,0.381 -0.0635,0.49742 0,0.17992 0.0635,0.40216 0.24341,-0.0952 0.69849,-0.0952 0.0635,-0.0635 0.29634,-0.20109 h 0.40216 v 0.0952 h 0.29633 q 0.0318,0.0212 0.0635,0.0529 0.0423,0.0212 0.0529,0.0318 0.0106,0 0.0318,0.0106 0.0317,0.0106 0.0635,0.0106 0.0317,0 0.0847,0 0.17991,0.19049 0.29633,0.40216 0.16933,0 0.3175,0.0952 l 0.1905,0.30692 v 0.39158 q 0.10583,0.0635 0.29633,0.30691 v 0.49742 h 0.10583 v 0.29633 q 0.0953,0.10583 0.10584,0.30692 v 0.0952 l -0.21167,0.10583 v 0.60325 h 0.10583 v 0.39158 q -0.15875,0.15875 -0.29633,0.20108 l -0.10583,0.40217 -0.10584,0.10583 -0.29633,0.0952 -0.10583,0.0952 v 0.30692 l -0.1905,0.20108 q -0.24342,0.0212 -0.508,0.20108 l -0.40216,-0.10583 q -0.13759,0.10583 -0.40217,0.10583 h -0.0847 v -0.20108 h -0.50799 v -0.10583 q -0.29634,0 -0.59267,-0.0952 -0.13758,0.16933 -0.3175,0.16933 -0.24341,0 -0.6985,-0.47625 0.0741,-0.1905 0.21167,-0.29633 0,-0.0529 0,-0.0847 0,-0.0317 -0.0106,-0.0529 -0.0106,-0.0317 -0.0212,-0.0423 0,-0.0106 -0.0317,-0.0423 -0.0212,-0.0423 -0.0423,-0.0741 v -0.10584 q 0.0952,-0.1905 0.10583,-0.40216 h -0.10583 v -0.59267 h -0.10584 v -0.40216 h 0.10584 v -0.89958 q 0.14816,-0.24342 0.21166,-0.30692 -0.0106,-0.28575 -0.10583,-0.49741 v -0.0952 q 0.127,-0.30692 0.127,-0.68792 0,-0.381 -0.127,-0.81491 -0.0212,0.0106 -0.0529,0.0318 -0.0212,0.0212 -0.0318,0.0317 -0.0106,0 -0.0317,0.0106 -0.0106,0.0106 -0.0212,0.0106 -0.0106,0 -0.0212,0.0106 -0.0106,0 -0.0423,0 -0.0212,0 -0.0423,0 -0.0106,0 -0.0529,0 l -0.10583,-0.29634 h -0.59267 l -0.10583,-0.10583 q 0,-0.42333 0.1905,-0.79375 0.23283,0.0106 0.40216,0.0952 z"
     style="font-style:normal;font-variant:normal;font-weight:normal;font-stretch:normal;font-size:10.5833px;line-height:1.25;font-family:GNUTypewriter;-inkscape-font-specification:'GNUTypewriter, Normal';font-variant-ligatures:normal;font-variant-caps:normal;font-variant-numeric:normal;font-variant-east-asian:normal;fill:#000000;fill-opacity:1;stroke:none;stroke-width:0.264583"
     id="path4530" /><path
     d="m 341.59703,216.698 h 0.1905 q 0.0212,0.0106 0.0529,0.0212 0.0529,0.0212 0.0529,0.0847 0,0.0106 0,0.0212 v 0.0741 q -0.15875,-0.0317 -0.1905,-0.0529 -0.0317,-0.0212 -0.10583,-0.14816 z m -0.4445,0.53974 h 0.0635 q 0.0212,0.0106 0,0.0317 h -0.0635 q -0.0212,-0.0106 0,-0.0317 z m 0.4445,0.35984 h 0.29633 q 0,0.0529 0,0.0847 0,0.0212 -0.0106,0.0423 0,0.0212 -0.0106,0.0423 -0.0106,0.0212 -0.0212,0.0318 0,0.0106 -0.0212,0.0529 -0.0212,0.0317 -0.0423,0.0529 h -0.10584 q -0.0847,-0.127 -0.0847,-0.30691 z m -1.50283,0.60324 0.0847,0.10584 z m 0.48683,-2.69874 q -0.0212,0.0106 -0.0529,0.0317 -0.0212,0.0212 -0.0318,0.0318 -0.0106,0 -0.0317,0.0106 -0.0106,0.0106 -0.0212,0.0106 -0.0106,0 -0.0212,0.0106 -0.0106,0 -0.0423,0 -0.0212,0 -0.0423,0 -0.0106,0 -0.0529,0 -0.10584,0.17992 -0.30692,0.30692 v 0.39158 q -0.0317,0.0106 -0.0635,0.0212 -0.0212,0 -0.0423,0.0106 -0.0106,0 -0.0318,0.0106 -0.0106,0.0106 -0.0212,0.0212 -0.0106,0 -0.0317,0.0212 -0.0106,0.0106 -0.0212,0.0317 -0.0106,0.0106 -0.0317,0.0423 -0.0212,0.0212 -0.0423,0.0423 l -0.10583,0.508 q 0.14817,0.10583 0.14817,0.13758 0,0.0106 -0.0106,0.0317 0,0.0212 -0.0106,0.0635 -0.0106,0.0317 -0.0212,0.0635 v 0.20109 q 0.0953,0.21166 0.10583,0.49741 0.127,0.15875 0.17992,0.40217 l 0.30692,0.10583 h 0.508 v 0.0952 h 0.59266 l 0.10583,-0.0952 v -0.40217 h 0.508 l 0.1905,-0.20108 v -0.0847 q 0,-0.0212 0.10583,-0.51859 -0.17991,0.0317 -0.29633,0 l 0.29633,-0.29633 q -0.0212,-0.1905 -0.0212,-0.29633 0,-0.0953 0.0212,-0.30692 l -0.69849,-0.69849 h -0.10584 q -0.0212,0.0212 -0.0635,0.0423 -0.0317,0.0212 -0.0423,0.0318 0,0 -0.0212,0.0212 -0.0212,0.0106 -0.0317,0.0106 0,0 -0.0106,0.0212 -0.0106,0.0212 -0.0212,0.0317 0,0.0106 -0.0212,0.0423 h -0.0847 q -0.16933,-0.26458 -0.21167,-0.40217 z m 0.61383,-1.10066 q 0.20108,0.0741 0.29633,0.20108 h 0.59267 l 0.508,0.29633 v 0.20109 l 0.10583,0.0952 q 0.13758,0.0423 0.29633,0.20108 l 0.10583,0.10583 v 0.29633 q 0.13759,0.0423 0.29634,0.20109 v 0.60325 l 0.1905,0.0953 v 0.40216 h 0.10583 v 0.29633 q -0.0212,0.0212 -0.0423,0.0635 -0.0212,0.0317 -0.0317,0.0423 0,0.0106 -0.0106,0.0317 -0.0106,0.0212 -0.0212,0.0423 0,0.0212 0,0.0529 0,0.0212 0,0.0741 h -0.0847 q -0.0106,0.20108 -0.10583,0.29633 v 0.40217 q -0.15875,0.15875 -0.29634,0.20108 v 0.40216 q -0.20108,0.15875 -0.40216,0.20109 l -0.10583,0.0952 v 0.20108 l -0.10584,0.10583 q -0.3175,0.0953 -0.69849,0.0953 l -0.29634,0.29633 h -0.508 q -0.0529,-0.0317 -0.0741,-0.0423 -0.0212,-0.0212 -0.0423,-0.0317 -0.0212,-0.0212 -0.0317,-0.0318 0,-0.0106 -0.0212,-0.0423 -0.0106,-0.0318 -0.0212,-0.0529 h -0.40217 v -0.0952 h -0.508 q -0.0847,-0.127 -0.0847,-0.29633 h -0.21166 l -0.10583,-0.10583 v -0.0952 l -0.0847,-0.10584 h -0.21167 l -0.29633,-0.29633 v -0.29633 l -0.21166,-0.10583 q -0.0529,-0.23284 -0.1905,-0.49742 v -0.40216 h 0.10583 v -0.60325 h -0.10583 v -0.40217 q 0.0847,-0.14816 0.1905,-0.20108 v -0.29633 q 0.17991,-0.33867 0.21166,-0.49742 0.22225,-0.20108 0.40217,-0.30691 v -0.20109 l 0.10583,-0.0952 h 0.1905 v -0.0952 h 0.21166 q 0.0106,-0.0212 0.0212,-0.0529 0.0212,-0.0423 0.0317,-0.0529 0.0106,-0.0106 0.0317,-0.0318 0.0318,-0.0212 0.0953,-0.0635 0.254,0.0106 0.41275,0.0953 0.11642,-0.14816 0.23283,-0.14816 0.0847,0 0.27517,0.0529 0.0635,-0.0635 0.29633,-0.20108 z"
     style="font-style:normal;font-variant:normal;font-weight:normal;font-stretch:normal;font-size:10.5833px;line-height:1.25;font-family:GNUTypewriter;-inkscape-font-specification:'GNUTypewriter, Normal';font-variant-ligatures:normal;font-variant-caps:normal;font-variant-numeric:normal;font-variant-east-asian:normal;fill:#000000;fill-opacity:1;stroke:none;stroke-width:0.264583"
     id="path4532" /><path
     d="m 348.24333,218.64532 0.10583,0.10584 z m 0.40216,-2.09549 h -0.29633 V 216.444 h 0.29633 z m -0.99483,0.29633 q 0.11642,0.0741 0.13758,0.10583 0.0212,0.0318 0.0529,0.1905 -0.15875,-0.0318 -0.1905,-0.0529 -0.0317,-0.0212 -0.10583,-0.14817 z m 0.59267,0 q 0.0952,0.10583 0.10583,0.29633 -0.14817,-0.10583 -0.14817,-0.13758 0,-0.0106 0,-0.0317 0.0106,-0.0212 0.0212,-0.0529 0.0106,-0.0423 0.0212,-0.0741 z m 2.20132,1.00541 q 0.10584,0.14817 0.10584,0.39159 h -0.10584 z m 0.0423,0.66675 q 0.0423,-0.0423 0.0423,0.0318 0,0.0635 -0.0212,0.0212 -0.0317,-0.0423 -0.0212,-0.0529 z m -2.54,-2.87865 q -0.0318,0.0212 -0.0741,0.0529 -0.0317,0.0212 -0.0423,0.0318 -0.0106,0 -0.0423,0.0106 -0.0212,0.0106 -0.0529,0.0106 -0.0317,0 -0.0847,0 -0.16933,0.24341 -0.1905,0.49741 -0.14816,0 -0.3175,0.10584 -0.0635,0.1905 -0.0635,0.30691 0,0.15875 0.27517,0.1905 -0.0317,0.0529 -0.10583,0.15875 -0.0635,0.10583 -0.10584,0.17992 -0.0423,0.0635 -0.0423,0.11641 0,0.11642 0.254,0.14817 -0.0423,0.11642 -0.0635,0.13758 -0.0212,0.0212 -0.14817,0.0635 0.0318,0.14817 0.0529,0.1905 0.0317,0.0317 0.15875,0.10583 v 0.40217 q 0.21167,0.0212 0.48683,0.20108 0.0212,-0.0529 0.0741,-0.15875 0.0529,-0.10583 0.0741,-0.14816 0.0317,-0.0423 0.0847,-0.10584 0.0529,-0.0741 0.11642,-0.11641 0.0635,-0.0423 0.15875,-0.0741 l -0.1905,0.49742 q 0.0317,0.0212 0.0635,0.0529 0.0423,0.0212 0.0529,0.0317 0.0106,0 0.0317,0.0106 0.0317,0.0106 0.0635,0.0106 0.0317,0 0.0847,0 v -0.20108 l 0.29633,0.0953 q -0.0212,-0.10583 -0.0212,-0.26458 0,-0.13759 0.0212,-0.23284 v -0.20108 q -0.0212,-0.0318 -0.0529,-0.0635 -0.0212,-0.0423 -0.0318,-0.0529 0,-0.0106 -0.0106,-0.0318 -0.0106,-0.0317 -0.0106,-0.0635 0,-0.0317 0,-0.0847 0.33867,-0.0423 0.33867,-0.20108 0,-0.0847 -0.127,-0.20109 v -0.10583 q 0.0106,0 0.0423,-0.0106 0.0952,-0.0317 0.11642,-0.0952 0.0106,-0.0106 0.0212,-0.0423 0.0106,-0.0317 0.0106,-0.0423 l -0.29634,-0.10583 0.10584,-0.40217 q -0.10584,-0.1905 -0.10584,-0.40216 l -0.40216,-0.20108 z m -2.39182,-2.99508 q 0.49741,0.0952 0.80433,0.0952 l 0.0847,0.20108 h 0.21166 q 0.15875,0.15875 0.29633,0.20109 -0.0106,0.29633 -0.10583,0.49741 0.127,0.0635 0.21167,0.20108 -0.0635,0.381 -0.0635,0.49742 0,0.17992 0.0635,0.40216 0.24341,-0.0952 0.69849,-0.0952 0.0635,-0.0635 0.29634,-0.20109 h 0.40216 v 0.0952 h 0.29633 q 0.0317,0.0212 0.0635,0.0529 0.0423,0.0212 0.0529,0.0318 0.0106,0 0.0317,0.0106 0.0317,0.0106 0.0635,0.0106 0.0317,0 0.0847,0 0.17991,0.19049 0.29633,0.40216 0.16933,0 0.3175,0.0952 l 0.1905,0.30692 v 0.39158 q 0.10583,0.0635 0.29633,0.30691 v 0.49742 h 0.10583 v 0.29633 q 0.0953,0.10583 0.10584,0.30692 v 0.0952 l -0.21167,0.10583 v 0.60325 h 0.10583 v 0.39158 q -0.15875,0.15875 -0.29633,0.20108 l -0.10583,0.40217 -0.10584,0.10583 -0.29633,0.0952 -0.10583,0.0952 v 0.30692 l -0.1905,0.20108 q -0.24342,0.0212 -0.508,0.20108 l -0.40216,-0.10583 q -0.13759,0.10583 -0.40217,0.10583 h -0.0847 v -0.20108 h -0.50799 v -0.10583 q -0.29634,0 -0.59267,-0.0952 -0.13758,0.16933 -0.3175,0.16933 -0.24341,0 -0.6985,-0.47625 0.0741,-0.1905 0.21167,-0.29633 0,-0.0529 0,-0.0847 0,-0.0317 -0.0106,-0.0529 -0.0106,-0.0317 -0.0212,-0.0423 0,-0.0106 -0.0317,-0.0423 -0.0212,-0.0423 -0.0423,-0.0741 v -0.10584 q 0.0952,-0.1905 0.10583,-0.40216 h -0.10583 v -0.59267 h -0.10584 v -0.40216 h 0.10584 v -0.89958 q 0.14816,-0.24342 0.21166,-0.30692 -0.0106,-0.28575 -0.10583,-0.49741 v -0.0952 q 0.127,-0.30692 0.127,-0.68792 0,-0.381 -0.127,-0.81491 -0.0212,0.0106 -0.0529,0.0318 -0.0212,0.0212 -0.0317,0.0317 -0.0106,0 -0.0318,0.0106 -0.0106,0.0106 -0.0212,0.0106 -0.0106,0 -0.0212,0.0106 -0.0106,0 -0.0423,0 -0.0212,0 -0.0423,0 -0.0106,0 -0.0529,0 l -0.10583,-0.29634 h -0.59267 l -0.10583,-0.10583 q 0,-0.42333 0.1905,-0.79375 0.23283,0.0106 0.40216,0.0952 z"
     style="font-style:normal;font-variant:normal;font-weight:normal;font-stretch:normal;font-size:10.5833px;line-height:1.25;font-family:GNUTypewriter;-inkscape-font-specification:'GNUTypewriter, Normal';font-variant-ligatures:normal;font-variant-caps:normal;font-variant-numeric:normal;font-variant-east-asian:normal;fill:#000000;fill-opacity:1;stroke:none;stroke-width:0.264583"
     id="path4534" /><path
     d="m 352.60363,212.76101 h 0.21167 l 0.10583,0.0952 h 0.1905 q 0.127,-0.10584 0.4445,-0.10584 0.0635,0 0.17992,0.0106 0.11641,0 0.17991,0 v 0.0952 h 0.48684 l 0.21166,0.40216 v 0.60325 l 0.20108,0.10583 q -0.0212,0.48684 -0.20108,0.6985 v 0.20108 q 0.0741,0.11642 0.11642,0.35984 0.0423,0.24341 0.0847,0.33866 l -0.0953,0.40217 q 0.0847,0.11641 0.0847,0.20108 0,0.0847 -0.0847,0.20108 l 0.0953,0.40217 q -0.0847,0.16933 -0.0847,0.20108 0,0.0423 0.0847,0.1905 -0.0423,0.11642 -0.0635,0.13758 -0.0212,0.0212 -0.13758,0.0635 0.10583,0.10584 0.29633,0.508 v 0.0952 q -0.0953,0.16933 -0.0953,0.40217 h -0.0953 l 0.0953,0.60324 q 0.26459,-0.19049 0.60325,-0.20108 0.0106,-0.0212 0.0212,-0.0529 0.0423,-0.0635 0.16933,-0.14817 0.29633,0.0953 0.61383,0.0953 l 0.0847,0.10583 h 0.21166 q 0.0953,-0.0953 0.29634,-0.10583 -0.0529,0.17992 -0.0952,0.22225 -0.0318,0.0317 -0.20109,0.0847 0.0741,0.15875 0.29634,0.39159 v 0.30691 l -0.1905,0.20109 q -0.0847,0 -0.30692,0.0106 -0.21166,0.0106 -0.32808,0.0106 -0.39158,0 -0.5715,-0.127 l -0.40216,0.10584 q -0.27517,-0.10584 -0.65617,-0.10584 h -0.254 v 0.10584 h -0.40216 v -0.10584 h -0.59267 v 0.10584 h -0.40216 v 0.0952 h -0.40217 q -0.24341,-0.17991 -0.508,-0.29633 v -0.20108 q 0.16934,-0.10583 0.3175,-0.10583 l -0.21166,-0.49742 0.50799,0.10583 0.10584,-0.20108 h 0.0847 l 0.10584,0.20108 h 0.10583 q 0.127,-0.15874 0.23283,-0.15874 0.0635,0 0.254,0.0529 0.0635,-0.13758 0.127,-0.17991 0.0741,-0.0529 0.27517,-0.11642 l -0.1905,-0.30692 v -0.59266 q 0.0317,-0.0741 0.0741,-0.29633 0.0529,-0.22225 0.11642,-0.30692 0,-0.16933 -0.0847,-0.29633 0,-0.17992 0.0847,-0.30692 v -0.0952 l -0.1905,-0.10583 0.10583,-0.60325 q 0,-0.0106 0.0106,-0.0423 0.0318,-0.0953 0.0953,-0.11642 0.0106,-0.0106 0.0423,-0.0212 0.0317,-0.0106 0.0423,-0.0106 -0.127,-0.27516 -0.24342,-0.35983 -0.0212,-0.0212 -0.0529,-0.0423 0.0106,-0.0529 0.0106,-0.13759 0.0106,-0.0847 0.0106,-0.13758 0.0106,-0.0529 0.0317,-0.11641 0.0212,-0.0635 0.0529,-0.11642 v -0.20108 q -0.10583,-0.13759 -0.10583,-0.39159 v -0.10583 q -0.15875,-0.0318 -0.1905,-0.0529 -0.0318,-0.0212 -0.10583,-0.14816 h -0.21167 q -0.17992,0.23283 -0.71966,0.23283 -0.127,0 -0.35984,-0.0106 -0.22225,-0.0212 -0.3175,-0.0212 0,-0.254 0.10584,-0.40216 v -0.0952 q -0.10584,-0.13759 -0.10584,-0.40217 v -0.10583 q 0.0635,0 0.16934,0.0106 0.10583,0 0.16933,0 0.39158,0 0.65616,-0.10583 z"
     style="font-style:normal;font-variant:normal;font-weight:normal;font-stretch:normal;font-size:10.5833px;line-height:1.25;font-family:GNUTypewriter;-inkscape-font-specification:'GNUTypewriter, Normal';font-variant-ligatures:normal;font-variant-caps:normal;font-variant-numeric:normal;font-variant-east-asian:normal;fill:#000000;fill-opacity:1;stroke:none;stroke-width:0.264583"
     id="path4536" /><path
     d="m 306.57694,230.1201 q 0,-0.15875 -0.127,-0.41275 -0.11641,-0.26458 -0.16933,-0.26458 h -0.0423 q -0.14817,0 -0.14817,0.0529 l -0.254,-0.0529 h -0.0529 l -0.34924,0.0529 q -0.10584,-0.17991 -0.10584,-0.24341 l 0.0529,-0.30692 -0.0529,-0.34925 q 0.0423,-0.29633 0.14817,-0.29633 l 0.30691,0.0423 q 0.0317,-0.1905 0.14817,-0.1905 h 0.15875 q 0.127,0.1905 0.24342,0.1905 l 0.28575,0.27516 0.26458,-0.27516 q 0.0741,0 0.30691,-0.1905 h 0.0423 l 0.20108,0.14816 h 0.0529 q 0.10583,0 0.1905,-0.0529 0.15874,0.0952 0.30691,0.0952 h 0.14817 l 0.14816,-0.0952 0.20109,0.14816 h 0.0529 l 0.68792,0.32808 0.35983,-0.38099 0.34925,-0.0423 q 0.0423,0.0318 0.17991,0.22225 0.13759,0.17992 0.1905,0.17992 0.0212,-0.0529 0.0317,-0.17992 0.0106,-0.13758 0.0212,-0.23283 0.0106,-0.0952 0.0317,-0.0952 0.0635,0 0.24342,0.20108 l 0.45508,-0.0529 q 0.0953,0.15874 0.0953,0.25399 -0.0529,0.29634 -0.0529,0.40217 0.0317,0.0212 0.0317,0.0423 l 0.0106,0.127 v 0.10584 l -0.0423,0.0847 -0.0318,-0.0212 0.13758,-0.0847 -0.20108,0.14817 -0.20108,-0.0635 q -0.61383,0 -0.80433,0.65616 l -0.28575,0.889 q -0.15875,0.48683 -0.15875,0.508 -0.0106,0.0212 -0.0529,0.17991 -0.0423,0.15875 -0.127,0.39158 -0.0847,0.22225 -0.1905,0.40217 -0.0212,0.0635 -0.0741,0.33866 -0.0423,0.27517 -0.127,0.41275 -0.0741,0.13759 -0.26458,0.21167 -0.23283,0.3175 -0.46567,0.3175 -0.23283,0 -0.53974,-0.68792 0.0212,-0.0635 0.0212,-0.10583 0,-0.21167 -0.23283,-0.45508 -0.0529,-0.0847 -0.0741,-0.13758 -0.0106,-0.0529 -0.0106,-0.0635 0.0106,-0.0212 -0.0106,-0.0423 -0.0212,-0.0212 -0.0741,-0.0635 l -0.0847,-0.39158 q -0.30692,-0.0952 -0.39158,-0.81491 -0.15875,-0.4445 -0.20108,-0.59267 z m 1.10067,-1.41816 v 0.14816 l 0.25399,0.0423 v -0.0423 q 0,-0.0635 -0.14816,-0.14816 z m -1.5875,0.14816 v 0.0423 h 0.0953 q 0.0953,0 0.0953,-0.0952 l -0.0953,-0.0529 q -0.0953,0.0212 -0.0953,0.10583 z m 2.09549,-0.10583 -0.0529,0.254 0.14816,0.0953 h 0.0529 q 0.10583,0 0.10583,-0.0953 v -0.0529 q 0,-0.0741 -0.21166,-0.20108 z m -0.29633,0.55033 q 0,0.29633 -0.10583,0.29633 h -0.29633 l 0.29633,0.84667 v 0.0635 q 0.28575,0.59266 0.4445,0.59266 0.10583,0.0529 0.14816,0.0529 v 0.24342 q 0.0212,0.10583 0.10584,0.10583 0.14816,-0.381 0.14816,-0.4445 l -0.0423,-0.30692 q 0.0635,0 0.14817,-0.14816 v -0.15875 l -0.0529,-0.33867 q 0.30691,-0.0529 0.30691,-0.14816 v -0.14817 q -0.28574,-0.16933 -0.50799,-0.508 -0.0953,0 -0.40217,0.0423 -0.0847,-0.0423 -0.1905,-0.0423 z m 0.1905,2.0955 v 0.14816 h 0.14817 v -0.0423 q 0,-0.10583 -0.0952,-0.10583 z"
     style="font-style:normal;font-variant:normal;font-weight:normal;font-stretch:normal;font-size:10.5833px;line-height:1.25;font-family:GNUTypewriter;-inkscape-font-specification:'GNUTypewriter, Normal';font-variant-ligatures:normal;font-variant-caps:normal;font-variant-numeric:normal;font-variant-east-asian:normal;fill:#000000;fill-opacity:1;stroke:none;stroke-width:0.264583"
     id="path4538" /><path
     d="m 315.39282,226.36303 h 0.29633 q 0.14817,0.17991 0.508,0.29633 l 0.1905,0.20108 q 0,0.29634 0.10583,0.6985 -0.0952,0.14817 -0.1905,0.20108 l 0.0847,0.30692 v 0.0953 l -0.1905,0.0952 0.1905,0.60325 q -0.0423,0.381 -0.0847,0.508 0.0847,0.10583 0.0847,0.29633 l -0.0847,0.0952 v 0.20108 q 0.0847,0.14817 0.0847,0.508 l 0.10583,0.0953 v 0.20108 q -0.10583,0.24342 -0.10583,0.6985 l 0.10583,0.10583 v 0.20108 q -0.10583,0.254 -0.10583,0.49742 -0.0847,0.14817 -0.0847,0.29633 0.11642,0.0952 0.13759,0.15875 0.0318,0.0635 0.0529,0.24342 -0.0212,0.0212 -0.0635,0.0423 -0.0317,0.0212 -0.0423,0.0317 -0.0106,0 -0.0317,0.0106 -0.0212,0.0106 -0.0423,0.0212 -0.0212,0 -0.0529,0 -0.0212,0 -0.0635,0 l -0.10583,0.49742 -0.40217,-0.20109 h -0.10583 v 0.29634 q -0.24342,-0.0212 -0.48683,-0.20109 0,-0.14816 -0.0635,-0.24341 -0.0212,-0.0318 -0.0423,-0.0529 v -0.49742 h -0.10583 v -0.70908 h 0.10583 v -0.59266 h -0.10583 v -0.40217 h 0.10583 v -0.0952 q 0,-0.27516 0.10584,-0.40216 0,-0.127 -0.0106,-0.15875 -0.0106,-0.0317 -0.0952,-0.14817 v -0.20108 q 0.0423,-0.0953 0.0847,-0.33867 0.0423,-0.24341 0.127,-0.35983 l -0.10583,-0.29633 q 0.10583,-0.30692 0.10583,-0.70908 -0.15875,-0.0529 -0.20108,-0.0952 -0.0317,-0.0423 -0.11642,-0.20108 l -0.40216,0.40216 q -0.20109,0.0423 -0.48684,0.20108 h -0.21166 q -0.0317,-0.0212 -0.0529,-0.0317 -0.0212,-0.0106 -0.0423,-0.0212 -0.0212,-0.0212 -0.0318,-0.0212 0,-0.0106 -0.0106,-0.0212 -0.0106,-0.0212 -0.0212,-0.0317 0,-0.0106 -0.0106,-0.0318 -0.0106,-0.0212 -0.0212,-0.0423 l -0.14817,-0.0847 q 0,-0.0423 0,-0.11642 0.0106,-0.0741 0.0106,-0.10583 0,-0.0318 -0.0106,-0.0847 0,-0.0635 0,-0.0952 0,-0.1905 0.0423,-0.41275 l 0.21166,-0.20108 q 0.24342,0.0106 0.40217,0.0952 0.0529,-0.16933 0.1905,-0.29633 h 0.29633 q 0.0635,-0.13759 0.29633,-0.40217 0.28575,-0.11642 0.508,-0.29633 z"
     style="font-style:normal;font-variant:normal;font-weight:normal;font-stretch:normal;font-size:10.5833px;line-height:1.25;font-family:GNUTypewriter;-inkscape-font-specification:'GNUTypewriter, Normal';font-variant-ligatures:normal;font-variant-caps:normal;font-variant-numeric:normal;font-variant-east-asian:normal;fill:#000000;fill-opacity:1;stroke:none;stroke-width:0.264583"
     id="path4540" /><path
     d="m 327.41543,226.38419 h 0.48683 v 0.0953 h 0.508 v -0.0953 h 0.50799 q 0.26459,0.20109 0.48684,0.29634 0.0212,0.0212 0.0423,0.0635 0.0212,0.0317 0.0212,0.0423 0.0106,0.0106 0.0212,0.0317 0.0106,0.0212 0.0106,0.0423 0.0106,0.0212 0.0106,0.0529 0,0.0212 0,0.0741 h 0.29633 q 0.20108,0.4445 0.21167,0.59267 0.20108,0.0847 0.40216,0.30691 l -0.10583,0.40217 q 0.10583,0.13758 0.10583,0.45508 v 0.4445 l -0.21166,0.0952 v 0.40216 l -0.29634,0.40217 q -0.23283,0.0741 -0.33866,0.17992 -0.10583,0.0952 -0.16933,0.31749 l -0.48684,-0.20108 -0.10583,0.30692 h -0.40216 v 0.0952 h -0.508 l -0.0847,0.40216 -0.40216,0.0952 v 0.20109 l -0.10584,0.10583 q -0.22225,0.20108 -0.40216,0.29633 0.0423,0.13758 0.0423,0.22225 0,0.0635 -0.0423,0.17992 0.58208,0.0423 0.80433,0.20108 h 0.10583 q 0.11642,-0.0847 0.40217,-0.0952 0.10583,0.0529 0.14816,0.127 0.0317,0.0529 0.0423,0.0635 0,-0.0529 0,-0.0847 0,-0.0317 0.0106,-0.0529 0.0106,-0.0317 0.0106,-0.0423 0.0106,-0.0106 0.0317,-0.0423 0.0317,-0.0423 0.0529,-0.0741 0.11642,0.0423 0.127,0.0635 0.0212,0.0106 0.0635,0.13758 h 0.29633 q 0.15875,-0.1905 0.35983,-0.1905 0.127,0 0.254,0.0952 h 0.29633 v -0.10583 l 0.508,0.10583 v 0.79375 q -0.0212,0.0212 -0.0423,0.0635 -0.0212,0.0318 -0.0318,0.0423 0,0.0106 -0.0106,0.0318 -0.0106,0.0212 -0.0212,0.0423 0,0.0212 0,0.0529 0,0.0212 0,0.0741 l -0.508,-0.10583 q -0.0741,0.0529 -0.16933,0.0847 -0.0953,0.0318 -0.23283,0.0635 -0.127,0.0317 -0.1905,0.0529 -0.14817,-0.0952 -0.42334,-0.10583 -0.26458,-0.0106 -0.38099,-0.0952 h -0.10584 q -0.20108,0.14817 -0.69849,0.14817 -0.49742,0 -0.6985,-0.14817 h -0.10584 q -0.15874,0.10583 -0.40216,0.10583 h -0.1905 q -0.23283,-0.14816 -0.40217,-0.20108 v -0.40217 q -0.15875,-0.0952 -0.29633,-0.30691 v -0.1905 q 0.10583,-0.15875 0.10583,-0.26458 v -0.13759 q 0.22225,-0.26458 0.29634,-0.60324 0.1905,-0.17992 0.40216,-0.29634 0,-0.17991 0.0847,-0.30691 0.16933,-0.0847 0.40216,-0.0952 l 0.10584,-0.10584 v -0.29633 l 0.6985,-0.40216 h 0.50799 q 0.0106,-0.0212 0.0212,-0.0529 0.0423,-0.0635 0.16933,-0.14817 l 0.61383,-0.0953 v -0.20108 l 0.0847,-0.10583 q 0.14817,-0.14817 0.3175,-0.20108 0.0212,-0.17992 0.0423,-0.23284 0.0212,-0.0635 0.14817,-0.15875 -0.10583,-0.22225 -0.10583,-0.60324 -0.13759,-0.13759 -0.1905,-0.40217 -0.127,-0.0423 -0.14817,-0.0635 -0.0212,-0.0212 -0.0635,-0.13758 h -0.6985 q -0.0847,-0.127 -0.0847,-0.29633 -0.17992,0.17991 -0.3175,0.17991 -0.10584,0 -0.29633,-0.0847 -0.0212,0.12699 -0.0741,0.16933 -0.0423,0.0423 -0.15875,0.0423 -0.0212,0 -0.10583,0 -0.0847,-0.0106 -0.14817,-0.0106 -0.0635,0.127 -0.11641,0.17991 -0.0529,0.0423 -0.20109,0.11642 -0.0106,0.0317 -0.0317,0.0847 -0.0212,0.0529 -0.0317,0.0741 0,0.0106 -0.0212,0.0423 -0.0106,0.0317 -0.0423,0.0529 -0.0212,0.0212 -0.0635,0.0529 0.0212,0.0317 0.0423,0.0741 0.0317,0.0317 0.0317,0.0423 0.0106,0.0106 0.0212,0.0423 0.0106,0.0212 0.0106,0.0529 0,0.0318 0,0.0847 l -0.508,0.40216 h -0.40217 q -0.1905,-0.3175 -0.1905,-0.69849 h 0.0847 v -0.40217 q 0.127,-0.127 0.17992,-0.15875 0.0635,-0.0317 0.22225,-0.0423 0.0317,-0.254 0.13758,-0.381 0.11642,-0.127 0.37042,-0.22225 h 0.10583 v -0.29633 q 0.34925,-0.10584 0.6985,-0.10584 z"
     style="font-style:normal;font-variant:normal;font-weight:normal;font-stretch:normal;font-size:10.5833px;line-height:1.25;font-family:GNUTypewriter;-inkscape-font-specification:'GNUTypewriter, Normal';font-variant-ligatures:normal;font-variant-caps:normal;font-variant-numeric:normal;font-variant-east-asian:normal;fill:#000000;fill-opacity:1;stroke:none;stroke-width:0.264583"
     id="path4542" /><path
     d="m 335.37406,227.87644 q 0.127,0.0423 0.14816,0.0635 0.0212,0.0212 0.0635,0.13758 h -0.21166 z m -0.80434,-0.6985 q -0.0212,0.0106 -0.0529,0.0317 -0.0212,0.0212 -0.0318,0.0318 -0.0106,0 -0.0317,0.0106 -0.0106,0.0106 -0.0212,0.0106 -0.0106,0 -0.0212,0.0106 -0.0106,0 -0.0423,0 -0.0212,0 -0.0423,0 -0.0106,0 -0.0529,0 -0.14816,0.14817 -0.1905,0.29633 l -0.508,0.10584 q -0.0212,0.0317 -0.0529,0.0741 -0.0212,0.0318 -0.0317,0.0423 0,0.0106 -0.0106,0.0423 -0.0106,0.0212 -0.0106,0.0529 0,0.0317 0,0.0847 l -0.0847,0.10583 q -0.16934,0 -0.3175,0.0953 0.0318,0.16934 0.0318,0.254 0,0.16933 -0.11642,0.34925 l 0.0847,0.40217 q -0.0635,0.0529 -0.11642,0.11641 -0.0423,0.0635 -0.0635,0.11642 -0.0212,0.0423 -0.0635,0.127 -0.0318,0.0847 -0.0529,0.13758 v 0.20108 l 0.10584,0.0952 -0.10584,0.40217 q 0.27517,0.20108 0.40217,0.40216 l -0.29633,-0.0953 0.1905,0.6985 0.21166,0.20109 h 0.40217 q 0,0.0212 0.0106,0.0635 0.0106,0.0317 0.0106,0.0423 0,0.0106 0.0106,0.0423 0.0106,0.0212 0.0106,0.0318 0,0 0.0106,0.0212 0.0106,0.0106 0.0212,0.0212 0.0106,0.0106 0.0317,0.0212 0.0212,0.0106 0.0317,0.0212 0.0212,0.0106 0.0529,0.0317 l 0.10583,0.40216 0.508,0.20109 q 0.127,-0.20109 0.1905,-0.40217 0.23283,0.14817 0.40216,0.20108 l 0.10584,-0.29633 0.48683,-0.10583 v -0.40217 q 0.16933,-0.0529 0.40216,-0.20108 v -0.49742 q -0.0212,-0.0106 -0.0529,-0.0318 -0.0212,-0.0212 -0.0317,-0.0212 -0.0106,-0.0106 -0.0317,-0.0212 -0.0106,-0.0106 -0.0212,-0.0106 -0.0106,0 -0.0212,0 -0.0106,-0.0106 -0.0423,-0.0106 -0.0212,0 -0.0423,0 -0.0106,0 -0.0529,0 v -0.20108 l 0.40217,-0.10583 q 0,-0.0741 0.0106,-0.20108 0.0106,-0.127 0.0106,-0.1905 0,-0.35984 -0.3175,-0.40217 v -0.10583 q 0.14817,0 0.24342,-0.0635 0.0317,-0.0212 0.0529,-0.0318 l -0.10584,-0.30692 q -0.15875,-0.15875 -0.29633,-0.20108 l 0.10583,-0.49741 v -0.20109 q -0.0212,-0.0318 -0.0529,-0.0635 -0.0212,-0.0423 -0.0317,-0.0529 0,-0.0106 -0.0106,-0.0318 -0.0106,-0.0317 -0.0106,-0.0635 0,-0.0317 0,-0.0847 l -0.1905,-0.20108 q -0.26458,-0.10584 -0.40216,-0.29633 l -0.21167,0.0952 -0.0847,-0.29633 q -0.20108,0.0317 -0.3175,0 z m -0.19049,-0.91016 h 0.50799 q 0.13759,0.0847 0.16934,0.14816 0.0106,0.0317 0.0212,0.0529 h 0.40217 l 0.29633,0.10583 q 0.10583,0.14817 0.15875,0.20109 0.0635,0.0423 0.24342,0.0952 0.0529,0.16933 0.1905,0.30691 l 0.0635,0.21167 q 0,0.0106 -0.0635,0.17991 0.16933,0.0529 0.40216,0.20109 l 0.10583,0.508 h 0.10584 l 0.10583,0.20108 v 0.29633 q 0.10583,0.0529 0.20108,0.20108 -0.0529,0.21167 -0.0529,0.26459 0,0.0529 0.0529,0.23283 v 0.10583 q -0.0212,0.0317 -0.0529,0.0741 -0.0212,0.0318 -0.0317,0.0423 0,0.0106 -0.0106,0.0423 -0.0106,0.0212 -0.0106,0.0529 0,0.0317 0,0.0847 0.10583,0.0529 0.20108,0.20109 -0.0953,0.3175 -0.0953,0.60324 -0.0952,0.14817 -0.20108,0.20109 0.0847,0.16933 0.0953,0.39158 l -0.41275,0.40216 v 0.40217 l -0.1905,0.30692 q -0.0953,0.0952 -0.23283,0.0952 h -0.0635 v 0.49741 l -0.21167,0.20108 h -0.48683 q -0.0952,0.16934 -0.3175,0.30692 -0.0529,0 -0.0847,0 -0.0317,0 -0.0635,-0.0106 -0.0212,-0.0106 -0.0318,-0.0106 -0.0106,-0.0106 -0.0529,-0.0317 -0.0317,-0.0317 -0.0635,-0.0529 -0.0423,0.14816 -0.1905,0.29633 -0.0317,-0.0106 -0.0741,-0.0212 -0.0423,-0.0212 -0.0635,-0.0212 -0.0106,-0.0106 -0.0423,-0.0212 -0.0212,-0.0212 -0.0423,-0.0318 -0.0106,-0.0106 -0.0317,-0.0317 -0.0212,-0.0318 -0.0423,-0.0635 l -0.40217,0.0952 -0.10583,-0.29633 -0.508,0.0952 q -0.33866,-0.27517 -0.6985,-0.40217 -0.0635,-0.29633 -0.29633,-0.59266 v -0.40217 q -0.0952,-0.0741 -0.17991,-0.16933 -0.0741,-0.0953 -0.17992,-0.23283 -0.0952,-0.13759 -0.14817,-0.20109 0,-0.21166 0.10584,-0.40216 -0.127,-0.0423 -0.17992,-0.14817 -0.0423,-0.10583 -0.0635,-0.28575 -0.0212,-0.17991 -0.0529,-0.26458 0,-0.21167 0.10584,-0.40217 l -0.21167,-0.20108 q 0.0741,-0.1905 0.21167,-0.29633 v -0.508 h 0.0847 v -0.39158 q 0.14817,-0.14817 0.3175,-0.20108 -0.10583,-0.23284 -0.10583,-0.508 0.15875,-0.15875 0.29633,-0.20109 0,-0.0529 0,-0.0847 0,-0.0317 0.0106,-0.0529 0.0106,-0.0317 0.0106,-0.0423 0.0106,-0.0106 0.0317,-0.0423 0.0317,-0.0423 0.0529,-0.0741 0.0212,-0.0106 0.0423,-0.0317 0.0317,-0.0212 0.0423,-0.0212 0.0106,-0.0106 0.0212,-0.0212 0.0212,-0.0106 0.0317,-0.0106 0.0106,0 0.0212,0 0.0106,-0.0106 0.0317,-0.0106 0.0317,0 0.0423,0 0.0212,0 0.0635,0 l 0.10583,-0.40216 0.1905,-0.20109 q 0.0529,0 0.0847,0 0.0317,0 0.0529,-0.0106 0.0317,-0.0106 0.0423,-0.0106 0.0106,-0.0106 0.0423,-0.0317 0.0423,-0.0318 0.0741,-0.0529 h 0.40217 v -0.0952 h 0.508 z"
     style="font-style:normal;font-variant:normal;font-weight:normal;font-stretch:normal;font-size:10.5833px;line-height:1.25;font-family:GNUTypewriter;-inkscape-font-specification:'GNUTypewriter, Normal';font-variant-ligatures:normal;font-variant-caps:normal;font-variant-numeric:normal;font-variant-east-asian:normal;fill:#000000;fill-opacity:1;stroke:none;stroke-width:0.264583"
     id="path4544" /><path
     d="m 340.5387,226.38419 h 0.48683 v 0.0953 h 0.508 v -0.0953 h 0.50799 q 0.26459,0.20109 0.48684,0.29634 0.0212,0.0212 0.0423,0.0635 0.0212,0.0317 0.0212,0.0423 0.0106,0.0106 0.0212,0.0317 0.0106,0.0212 0.0106,0.0423 0.0106,0.0212 0.0106,0.0529 0,0.0212 0,0.0741 h 0.29633 q 0.20108,0.4445 0.21167,0.59267 0.20108,0.0847 0.40216,0.30691 l -0.10583,0.40217 q 0.10583,0.13758 0.10583,0.45508 v 0.4445 l -0.21166,0.0952 v 0.40216 l -0.29634,0.40217 q -0.23283,0.0741 -0.33866,0.17992 -0.10583,0.0952 -0.16933,0.31749 l -0.48684,-0.20108 -0.10583,0.30692 h -0.40216 v 0.0952 h -0.508 l -0.0847,0.40216 -0.40216,0.0952 v 0.20109 l -0.10584,0.10583 q -0.22225,0.20108 -0.40216,0.29633 0.0423,0.13758 0.0423,0.22225 0,0.0635 -0.0423,0.17992 0.58208,0.0423 0.80433,0.20108 h 0.10583 q 0.11642,-0.0847 0.40217,-0.0952 0.10583,0.0529 0.14816,0.127 0.0317,0.0529 0.0423,0.0635 0,-0.0529 0,-0.0847 0,-0.0317 0.0106,-0.0529 0.0106,-0.0317 0.0106,-0.0423 0.0106,-0.0106 0.0317,-0.0423 0.0318,-0.0423 0.0529,-0.0741 0.11642,0.0423 0.127,0.0635 0.0212,0.0106 0.0635,0.13758 h 0.29633 q 0.15875,-0.1905 0.35983,-0.1905 0.127,0 0.254,0.0952 h 0.29633 v -0.10583 l 0.508,0.10583 v 0.79375 q -0.0212,0.0212 -0.0423,0.0635 -0.0212,0.0318 -0.0317,0.0423 0,0.0106 -0.0106,0.0318 -0.0106,0.0212 -0.0212,0.0423 0,0.0212 0,0.0529 0,0.0212 0,0.0741 l -0.508,-0.10583 q -0.0741,0.0529 -0.16933,0.0847 -0.0953,0.0318 -0.23283,0.0635 -0.127,0.0317 -0.1905,0.0529 -0.14817,-0.0952 -0.42334,-0.10583 -0.26458,-0.0106 -0.38099,-0.0952 h -0.10584 q -0.20108,0.14817 -0.69849,0.14817 -0.49742,0 -0.6985,-0.14817 h -0.10584 q -0.15874,0.10583 -0.40216,0.10583 h -0.1905 q -0.23283,-0.14816 -0.40217,-0.20108 v -0.40217 q -0.15875,-0.0952 -0.29633,-0.30691 v -0.1905 q 0.10584,-0.15875 0.10584,-0.26458 v -0.13759 q 0.22224,-0.26458 0.29633,-0.60324 0.1905,-0.17992 0.40216,-0.29634 0,-0.17991 0.0847,-0.30691 0.16933,-0.0847 0.40216,-0.0952 l 0.10584,-0.10584 v -0.29633 l 0.6985,-0.40216 h 0.50799 q 0.0106,-0.0212 0.0212,-0.0529 0.0423,-0.0635 0.16933,-0.14817 l 0.61383,-0.0953 v -0.20108 l 0.0847,-0.10583 q 0.14817,-0.14817 0.3175,-0.20108 0.0212,-0.17992 0.0423,-0.23284 0.0212,-0.0635 0.14817,-0.15875 -0.10583,-0.22225 -0.10583,-0.60324 -0.13759,-0.13759 -0.1905,-0.40217 -0.127,-0.0423 -0.14817,-0.0635 -0.0212,-0.0212 -0.0635,-0.13758 h -0.6985 q -0.0847,-0.127 -0.0847,-0.29633 -0.17992,0.17991 -0.3175,0.17991 -0.10584,0 -0.29633,-0.0847 -0.0212,0.12699 -0.0741,0.16933 -0.0423,0.0423 -0.15875,0.0423 -0.0212,0 -0.10583,0 -0.0847,-0.0106 -0.14817,-0.0106 -0.0635,0.127 -0.11641,0.17991 -0.0529,0.0423 -0.20109,0.11642 -0.0106,0.0317 -0.0318,0.0847 -0.0212,0.0529 -0.0317,0.0741 0,0.0106 -0.0212,0.0423 -0.0106,0.0317 -0.0423,0.0529 -0.0212,0.0212 -0.0635,0.0529 0.0212,0.0317 0.0423,0.0741 0.0317,0.0317 0.0317,0.0423 0.0106,0.0106 0.0212,0.0423 0.0106,0.0212 0.0106,0.0529 0,0.0318 0,0.0847 l -0.508,0.40216 H 338.93 q -0.19049,-0.3175 -0.19049,-0.69849 h 0.0847 v -0.40217 q 0.127,-0.127 0.17992,-0.15875 0.0635,-0.0317 0.22225,-0.0423 0.0318,-0.254 0.13758,-0.381 0.11642,-0.127 0.37042,-0.22225 h 0.10583 v -0.29633 q 0.34925,-0.10584 0.6985,-0.10584 z"
     style="font-style:normal;font-variant:normal;font-weight:normal;font-stretch:normal;font-size:10.5833px;line-height:1.25;font-family:GNUTypewriter;-inkscape-font-specification:'GNUTypewriter, Normal';font-variant-ligatures:normal;font-variant-caps:normal;font-variant-numeric:normal;font-variant-east-asian:normal;fill:#000000;fill-opacity:1;stroke:none;stroke-width:0.264583"
     id="path4546" /><path
     d="m 347.10033,226.38419 h 0.48683 v 0.0953 h 0.508 v -0.0953 h 0.508 q 0.26458,0.20109 0.48683,0.29634 0.0212,0.0212 0.0423,0.0635 0.0212,0.0317 0.0212,0.0423 0.0106,0.0106 0.0212,0.0317 0.0106,0.0212 0.0106,0.0423 0.0106,0.0212 0.0106,0.0529 0,0.0212 0,0.0741 h 0.29634 q 0.20108,0.4445 0.21166,0.59267 0.20108,0.0847 0.40217,0.30691 l -0.10584,0.40217 q 0.10584,0.13758 0.10584,0.45508 v 0.4445 l -0.21167,0.0952 v 0.40216 l -0.29633,0.40217 q -0.23283,0.0741 -0.33867,0.17992 -0.10583,0.0952 -0.16933,0.31749 l -0.48683,-0.20108 -0.10583,0.30692 h -0.40217 v 0.0952 h -0.508 l -0.0847,0.40216 -0.40217,0.0952 v 0.20109 l -0.10583,0.10583 q -0.22225,0.20108 -0.40217,0.29633 0.0423,0.13758 0.0423,0.22225 0,0.0635 -0.0423,0.17992 0.58208,0.0423 0.80433,0.20108 h 0.10584 q 0.11641,-0.0847 0.40216,-0.0952 0.10583,0.0529 0.14817,0.127 0.0318,0.0529 0.0423,0.0635 0,-0.0529 0,-0.0847 0,-0.0317 0.0106,-0.0529 0.0106,-0.0317 0.0106,-0.0423 0.0106,-0.0106 0.0317,-0.0423 0.0317,-0.0423 0.0529,-0.0741 0.11642,0.0423 0.127,0.0635 0.0212,0.0106 0.0635,0.13758 h 0.29633 q 0.15875,-0.1905 0.35984,-0.1905 0.127,0 0.254,0.0952 h 0.29633 v -0.10583 l 0.508,0.10583 v 0.79375 q -0.0212,0.0212 -0.0423,0.0635 -0.0212,0.0318 -0.0317,0.0423 0,0.0106 -0.0106,0.0318 -0.0106,0.0212 -0.0212,0.0423 0,0.0212 0,0.0529 0,0.0212 0,0.0741 l -0.50799,-0.10583 q -0.0741,0.0529 -0.16934,0.0847 -0.0952,0.0318 -0.23283,0.0635 -0.127,0.0317 -0.1905,0.0529 -0.14817,-0.0952 -0.42333,-0.10583 -0.26458,-0.0106 -0.381,-0.0952 h -0.10583 q -0.20109,0.14817 -0.6985,0.14817 -0.49742,0 -0.6985,-0.14817 h -0.10583 q -0.15875,0.10583 -0.40217,0.10583 h -0.1905 q -0.23283,-0.14816 -0.40216,-0.20108 v -0.40217 q -0.15875,-0.0952 -0.29633,-0.30691 v -0.1905 q 0.10583,-0.15875 0.10583,-0.26458 v -0.13759 q 0.22225,-0.26458 0.29633,-0.60324 0.1905,-0.17992 0.40217,-0.29634 0,-0.17991 0.0847,-0.30691 0.16934,-0.0847 0.40217,-0.0952 l 0.10583,-0.10584 v -0.29633 l 0.6985,-0.40216 h 0.508 q 0.0106,-0.0212 0.0212,-0.0529 0.0423,-0.0635 0.16934,-0.14817 l 0.61383,-0.0953 v -0.20108 l 0.0847,-0.10583 q 0.14817,-0.14817 0.3175,-0.20108 0.0212,-0.17992 0.0423,-0.23284 0.0212,-0.0635 0.14816,-0.15875 -0.10583,-0.22225 -0.10583,-0.60324 -0.13758,-0.13759 -0.1905,-0.40217 -0.127,-0.0423 -0.14817,-0.0635 -0.0212,-0.0212 -0.0635,-0.13758 h -0.69849 q -0.0847,-0.127 -0.0847,-0.29633 -0.17992,0.17991 -0.3175,0.17991 -0.10583,0 -0.29633,-0.0847 -0.0212,0.12699 -0.0741,0.16933 -0.0423,0.0423 -0.15875,0.0423 -0.0212,0 -0.10584,0 -0.0847,-0.0106 -0.14816,-0.0106 -0.0635,0.127 -0.11642,0.17991 -0.0529,0.0423 -0.20108,0.11642 -0.0106,0.0317 -0.0317,0.0847 -0.0212,0.0529 -0.0317,0.0741 0,0.0106 -0.0212,0.0423 -0.0106,0.0317 -0.0423,0.0529 -0.0212,0.0212 -0.0635,0.0529 0.0212,0.0317 0.0423,0.0741 0.0317,0.0317 0.0317,0.0423 0.0106,0.0106 0.0212,0.0423 0.0106,0.0212 0.0106,0.0529 0,0.0318 0,0.0847 l -0.508,0.40216 h -0.40216 q -0.1905,-0.3175 -0.1905,-0.69849 h 0.0847 v -0.40217 q 0.127,-0.127 0.17991,-0.15875 0.0635,-0.0317 0.22225,-0.0423 0.0317,-0.254 0.13758,-0.381 0.11642,-0.127 0.37042,-0.22225 h 0.10583 v -0.29633 q 0.34925,-0.10584 0.6985,-0.10584 z"
     style="font-style:normal;font-variant:normal;font-weight:normal;font-stretch:normal;font-size:10.5833px;line-height:1.25;font-family:GNUTypewriter;-inkscape-font-specification:'GNUTypewriter, Normal';font-variant-ligatures:normal;font-variant-caps:normal;font-variant-numeric:normal;font-variant-east-asian:normal;fill:#000000;fill-opacity:1;stroke:none;stroke-width:0.264583"
     id="path4548" /><path
     d="m 305.0847,245.9552 0.0847,0.10583 z m 0.78316,0 h 0.20108 v 0.29633 q -0.127,-0.0741 -0.14816,-0.10583 -0.0212,-0.0318 -0.0529,-0.1905 z m 2.01083,-0.80433 -0.40217,0.60324 v 0.10584 l 0.21167,0.20108 q 0.23283,0 0.48683,-0.10583 l 0.10583,0.29633 0.508,-0.1905 q -0.0423,-0.0847 -0.13758,-0.21167 -0.0953,-0.13758 -0.16933,-0.254 -0.0635,-0.11641 -0.0953,-0.24341 l -0.29634,-0.20108 z m -2.30716,-5.00591 0.29633,-0.0952 h 0.91016 v 0.0952 h 0.59267 l 0.10583,0.10584 q 0,0.21166 0.10584,0.40216 0,0.0529 0,0.0847 0,0.0318 -0.0106,0.0635 -0.0106,0.0212 -0.0212,0.0317 0,0.0106 -0.0317,0.0529 -0.0212,0.0318 -0.0423,0.0635 0.127,0.0635 0.21167,0.20108 l -0.10583,1.10066 h 0.40216 q -0.0212,0.23283 -0.10583,0.30692 -0.0741,0.0741 -0.29633,0.0952 -0.0106,0.29633 -0.10584,0.49741 0.127,0.0423 0.14817,0.0635 0.0212,0.0212 0.0635,0.13758 h 0.59266 l -0.10583,-0.40216 0.14817,-0.0953 0.14816,0.0953 q -0.0423,-0.127 -0.15875,-0.33867 -0.11641,-0.21166 -0.13758,-0.254 0.13758,-0.0423 0.29633,-0.20108 h 0.21167 q 0.0529,-0.16933 0.1905,-0.30691 0.254,0.0529 0.40216,0.20108 0.17992,-0.0741 0.508,-0.0952 v -0.10583 h 0.6985 q 0.0106,0.0106 0.0317,0.0317 0.0212,0.0212 0.0741,0.0106 0.0529,-0.0212 0.10584,-0.0423 0.21166,0.16933 0.29633,0.30691 0.10583,-0.0212 0.14816,-0.0212 0.30692,0 0.33867,0.51858 l -0.1905,0.20108 h -0.508 v 0.0953 h -0.29633 q -0.10583,0.10583 -0.23283,0.10583 h -0.0635 q -0.0423,0.0847 -0.0741,0.10584 -0.0212,0.0212 -0.13758,0.0952 h -0.40216 q -0.1905,0.37042 -0.381,0.49742 -0.0106,0.3175 -0.10584,0.60325 0.14817,0.10583 0.40217,0.40216 v 0.39159 l 0.0847,0.10583 0.21166,0.0952 0.10583,0.10583 v 0.20108 l 0.1905,0.20109 q 0.20109,0.0741 0.29634,0.20108 h 0.40216 q 0.0318,-0.0212 0.0635,-0.0423 0.0423,-0.0317 0.0529,-0.0317 0.0106,-0.0106 0.0317,-0.0212 0.0318,-0.0106 0.0635,-0.0106 0.0317,0 0.0847,0 l 0.3175,0.40216 v 0.60325 l -0.3175,0.20108 q -0.0529,-0.0106 -0.127,-0.0106 -0.0741,0 -0.65616,0.10583 -0.22225,-0.14816 -0.73025,-0.14816 -0.508,-0.0106 -0.68791,-0.14817 -0.13758,0.0423 -0.254,0.0423 -0.0635,0 -0.33867,-0.0423 -0.0529,0.0635 -0.29633,0.20108 h -0.91016 v -0.10583 q -0.34925,0 -0.6985,0.10583 -0.26458,-0.1905 -0.59267,-0.20108 -0.0212,0.0106 -0.0529,0.0317 -0.0212,0.0212 -0.0317,0.0318 -0.0106,0 -0.0317,0.0106 -0.0106,0.0106 -0.0212,0.0106 -0.0106,0 -0.0212,0.0106 -0.0106,0 -0.0423,0 -0.0212,0 -0.0423,0 -0.0106,0 -0.0529,0 l -0.3175,-0.29633 v -0.40217 h 0.0318 q 0.0847,0 0.1905,-0.0212 0.11642,-0.0212 0.15875,-0.0212 0.11642,0 0.21167,0.14816 l 0.14816,-0.0847 q 0.0212,-0.0529 0.0423,-0.0635 0.0212,-0.0212 0.0423,-0.0106 0.0317,0.0106 0.0741,0.0212 0.0423,0 0.0953,-0.0106 l 0.0212,-0.254 q 0.15875,-0.15875 0.29633,-0.20108 v -0.10584 q -0.127,-0.127 -0.127,-0.1905 0,-0.0847 0.127,-0.21166 -0.0423,-0.13758 -0.0423,-0.33867 0,-0.11641 0.0212,-0.381 0.0212,-0.26458 0.0212,-0.38099 -0.0212,-0.0318 -0.0529,-0.0635 -0.0212,-0.0423 -0.0318,-0.0529 0,-0.0106 -0.0106,-0.0318 -0.0106,-0.0317 -0.0106,-0.0635 0,-0.0318 0,-0.0847 0.0847,-0.127 0.11642,-0.35983 0.0317,-0.24342 0.0953,-0.33867 v -0.10583 q -0.11642,-0.15875 -0.14817,-0.62441 -0.0318,-0.46567 -0.0635,-0.5715 0.0741,-0.127 0.21167,-0.20108 l -0.21167,-0.6985 -0.30692,0.0953 q -0.16933,-0.0847 -0.39158,-0.0953 l -0.29633,-0.10583 v -0.49742 l 0.10583,-0.20108 z"
     style="font-style:normal;font-variant:normal;font-weight:normal;font-stretch:normal;font-size:10.5833px;line-height:1.25;font-family:GNUTypewriter;-inkscape-font-specification:'GNUTypewriter, Normal';font-variant-ligatures:normal;font-variant-caps:normal;font-variant-numeric:normal;font-variant-east-asian:normal;fill:#000000;fill-opacity:1;stroke:none;stroke-width:0.264583"
     id="path4550" /><path
     d="m 315.28699,242.94954 q -0.0423,0.0317 -0.0635,0.0529 -0.0212,0.0106 -0.0423,0.0212 -0.0212,0.0106 -0.0317,0.0212 0,0.0106 -0.0106,0.0212 -0.0106,0.0106 -0.0212,0.0423 -0.0106,0.0212 -0.0212,0.0423 l -0.21167,-0.10583 q -0.10583,0.0952 -0.13758,0.13758 -0.0212,0.0318 -0.0529,0.16933 l -0.40216,-0.10583 q -0.10584,0.23283 -0.10584,0.60325 h -0.0953 v 0.28575 q 0,0.35983 -0.20108,0.51858 0.0212,0.17992 0.0423,0.24342 0.0317,0.0529 0.15875,0.15875 -0.0106,0.0212 -0.0317,0.0529 -0.0212,0.0212 -0.0317,0.0317 0,0.0106 -0.0106,0.0318 -0.0106,0.0106 -0.0106,0.0212 0,0.0106 -0.0106,0.0212 0,0.0106 0,0.0423 0,0.0212 0,0.0423 0,0.0106 0,0.0529 0.0741,0.1905 0.0953,0.49741 0.14817,-0.0529 0.1905,-0.0952 0.0423,-0.0423 0.11642,-0.20108 h 0.0847 q 0.0423,0.13758 0.21166,0.40217 h 0.1905 l 0.10583,-0.10584 -0.10583,-0.39158 q 0.0635,0.0423 0.22225,0.1905 0.16933,0.14817 0.28575,0.20108 v -0.39158 q 0.21167,0 0.40216,-0.10583 v -0.0952 q -0.23283,-0.14817 -0.40216,-0.20108 0.0741,-0.127 0.0847,-0.14817 0.0212,-0.0318 0.0635,-0.0953 0.0529,-0.0741 0.10583,-0.0952 0.0529,-0.0317 0.14816,-0.0635 0,-0.0635 0.0212,-0.1905 0.0212,-0.13758 0.0212,-0.1905 0,-0.27516 -0.33867,-0.3175 v -0.10583 q 0.16934,-0.0529 0.23284,-0.0952 0.0635,-0.0529 0.16933,-0.20108 l -0.10584,-0.40217 -0.10583,-0.10583 z m -0.48684,3.30199 0.0847,0.10583 z m -2.70932,-4.60374 h 0.1905 q 0.254,0.10584 0.6985,0.10584 h 0.0212 v 0.0953 h 0.48684 v 0.20108 l 0.69849,0.0952 q 0.0635,-0.0741 0.40217,-0.29633 0.20108,-0.0423 0.40216,-0.20109 0.1905,0.0106 0.29634,0.10584 h 0.10583 q 0.13758,-0.0952 0.40216,-0.10584 v 0.10584 h 0.40217 l 0.10583,0.1905 h 0.0847 v 0.10583 h 0.10583 l 0.21167,0.20108 v 0.20108 l 0.1905,0.0952 0.10583,0.20109 v 0.10583 l -0.21166,0.29633 q 0.12699,0.0423 0.14816,0.0635 0.0212,0.0212 0.0635,0.13758 0,0.0318 0,0.0741 0,0.0847 -0.0423,0.0952 l -0.0635,0.0317 v 0.0953 l 0.10583,0.20108 -0.10583,0.30692 q 0.0106,0.0106 0.0423,0.0212 0.0529,0.0317 0.11642,0.11642 l 0.0317,0.0529 q -0.0106,0.26459 -0.0847,0.40217 v 0.30692 l -0.10583,0.0952 v 0.20108 q 0.10583,0.14816 0.1905,0.40216 h 0.40216 l 0.40217,0.29634 q 0,0.0529 0,0.0847 0,0.0212 0,0.0423 0.0106,0.0212 0.0212,0.0423 0.0106,0.0212 0.0106,0.0318 0.0106,0.0106 0.0317,0.0529 0.0212,0.0317 0.0423,0.0529 l 0.10583,0.49742 q -0.32808,0.20108 -0.69849,0.20108 -0.0423,0.127 -0.21167,0.29633 h -0.10583 q -0.14817,-0.14816 -0.1905,-0.29633 -0.23283,0.0952 -0.6985,0.0952 l -0.10583,0.10583 h -0.1905 q -0.26458,-0.10583 -0.61383,-0.10583 h -0.40217 v -0.20108 q -0.16933,0.0529 -0.40216,0.20108 -0.14817,0 -0.24342,-0.0635 -0.0317,-0.0212 -0.0529,-0.0318 -0.13758,0.0952 -0.40216,0.0952 l -0.0847,-0.0952 h -0.21166 q -0.127,0.0952 -0.40217,0.0952 h -0.0847 v 0.10583 h -0.71966 q -0.0318,-0.0212 -0.0741,-0.0423 -0.0317,-0.0317 -0.0423,-0.0317 -0.0106,-0.0106 -0.0423,-0.0212 -0.0212,-0.0106 -0.0529,-0.0106 -0.0317,0 -0.0847,0 -0.10584,-0.34925 -0.10584,-0.6985 h -0.0847 v -0.40216 l 0.29633,-0.29634 h 0.29633 q 0.0423,-0.11641 0.0635,-0.13758 0.0212,-0.0212 0.14817,-0.0635 l -0.10583,-0.49741 q 0.0212,-0.0423 0.0423,-0.0847 0.0317,-0.0529 0.0423,-0.0847 0.0106,-0.0317 0.0423,-0.0635 0.0317,-0.0423 0.0635,-0.0741 v -0.49741 h -0.0847 v -0.0953 q 0,-0.16934 0.0847,-0.30692 v -0.0952 q -0.0847,-0.11642 -0.0847,-0.3175 v -0.1905 q -0.0212,-0.0317 -0.0529,-0.0635 -0.0212,-0.0423 -0.0317,-0.0529 0,-0.0106 -0.0106,-0.0317 -0.0106,-0.0318 -0.0106,-0.0635 0,-0.0317 0,-0.0847 h -0.61384 q -0.0423,-0.14817 -0.1905,-0.29633 v -0.40217 q -0.10583,-0.0952 -0.10583,-0.23283 v -0.0741 q 0.0212,-0.0106 0.0529,-0.0212 0.10583,-0.0317 0.13758,-0.10583 0.0106,-0.0212 0.0212,-0.0635 0.0529,0 0.0847,0 0.0317,0 0.0529,-0.0106 0.0317,-0.0106 0.0423,-0.0106 0.0106,-0.0106 0.0423,-0.0318 0.0423,-0.0317 0.0741,-0.0529 z"
     style="font-style:normal;font-variant:normal;font-weight:normal;font-stretch:normal;font-size:10.5833px;line-height:1.25;font-family:GNUTypewriter;-inkscape-font-specification:'GNUTypewriter, Normal';font-variant-ligatures:normal;font-variant-caps:normal;font-variant-numeric:normal;font-variant-east-asian:normal;fill:#000000;fill-opacity:1;stroke:none;stroke-width:0.264583"
     id="path4552" /><path
     d="m 321.10779,239.75338 h 0.40217 q 0.26458,0.15875 0.48683,0.20109 l 0.11641,0.10583 v 0.29633 q 0.0317,0.0106 0.0529,0.0212 0.0318,0 0.0423,0.0106 0.0212,0 0.0317,0.0106 0.0212,0.0106 0.0317,0.0212 0.0106,0 0.0212,0.0212 0.0212,0.0106 0.0317,0.0317 0.0106,0.0106 0.0318,0.0423 0.0212,0.0212 0.0423,0.0423 -0.0741,0.35984 -0.1905,0.49742 l 0.1905,0.10583 v 0.0953 q -0.13758,0.0423 -0.23283,0.127 -0.0847,0.0741 -0.127,0.13758 -0.0423,0.0635 -0.127,0.23284 l -0.61383,-0.0952 v -0.0952 h -0.40217 l -0.29633,-0.10584 q -0.10583,-0.34924 -0.10583,-0.69849 -0.11642,-0.0635 -0.13758,-0.0953 -0.0212,-0.0317 -0.0529,-0.20109 l 0.29633,-0.10583 0.10583,-0.20108 q 0.0212,-0.0106 0.0423,-0.0318 0.0318,-0.0212 0.0423,-0.0212 0.0106,-0.0106 0.0212,-0.0212 0.0212,-0.0106 0.0317,-0.0106 0.0106,0 0.0212,0 0.0106,-0.0106 0.0317,-0.0106 0.0317,0 0.0423,0 0.0212,0 0.0635,0 0,-0.0529 0,-0.0741 0,-0.0318 0,-0.0529 0.0106,-0.0212 0.0212,-0.0423 0.0106,-0.0212 0.0106,-0.0318 0.0106,-0.0106 0.0317,-0.0423 0.0212,-0.0423 0.0423,-0.0635 z m -2.01083,2.00025 0.40217,0.10583 q 0.13758,-0.0953 0.40216,-0.10583 v 0.10583 h 0.508 l 0.0847,-0.10583 h 0.21166 q 0.1905,0.10583 0.40217,0.10583 v -0.10583 h 0.40217 l 0.40216,0.30691 v 0.29633 h 0.0847 q 0,0.0635 0,0.10584 0.0106,0.0423 0.0106,0.0635 0.0106,0.0106 0.0423,0.0635 0.0423,0.0423 0.0635,0.0741 v 0.49742 q -0.13758,0.23283 -0.20108,0.29633 l 0.0847,0.40216 q -0.0847,0.127 -0.0847,0.15875 0,0.0212 0.0847,0.14817 l -0.0847,0.39158 0.20108,0.10583 v 0.0952 q -0.11641,0.16934 -0.1905,0.47625 -0.0635,0.30692 -0.11641,0.42333 0.17991,0.127 0.30691,0.40217 0.0529,0 0.0741,0 0.0212,0 0.0423,0 0.0212,0 0.0317,-0.0106 0.0212,-0.0106 0.0317,-0.0106 0.0212,-0.0106 0.0423,-0.0318 0.0318,-0.0212 0.0635,-0.0423 h 0.29634 v -0.10583 h 0.31749 l 0.48684,0.20108 0.10583,-0.20108 h 0.10583 l 0.10583,0.20108 h 0.0847 v 0.10583 h 0.10583 l 0.1905,0.20109 v 0.49741 l -0.0847,0.29633 q -0.0953,-0.0212 -0.21167,-0.0212 -0.0952,0 -0.29633,0.127 l -0.40217,-0.10584 q -0.127,0.0952 -0.254,0.0952 -0.127,0 -0.25399,-0.0952 l -0.381,0.10584 q -0.14817,-0.0317 -0.23284,-0.0317 -0.11641,0 -0.27516,0.0317 -0.127,-0.0423 -0.14817,-0.0635 -0.0212,-0.0212 -0.0635,-0.13759 -0.21166,0.0952 -0.59266,0.0952 -0.10584,0.10584 -0.23284,0.10584 h -0.0635 q -0.11641,-0.0741 -0.14816,-0.0952 -0.0212,-0.0212 -0.0635,-0.10584 h -0.48683 l -0.10584,0.20109 q -0.254,0 -0.40216,-0.10584 h -0.29633 q -0.0212,-0.0106 -0.0529,-0.0317 -0.0212,-0.0212 -0.0317,-0.0212 -0.0106,-0.0106 -0.0317,-0.0212 -0.0106,-0.0106 -0.0212,-0.0106 -0.0106,0 -0.0212,0 -0.0106,-0.0106 -0.0423,-0.0106 -0.0212,0 -0.0423,0 -0.0106,0 -0.0529,0 -0.1905,-0.254 -0.29633,-0.49741 0.254,-0.23283 0.381,-0.30692 0,-0.21166 0.10583,-0.40216 l 0.40217,0.10583 q 0.0953,-0.0952 0.29633,-0.10583 0.28575,0.20108 0.6985,0.20108 0.10583,-0.14817 0.15875,-0.1905 0.0635,-0.0529 0.24341,-0.10583 -0.0635,-0.20109 -0.1905,-0.40217 0.0423,-0.27516 0.0423,-0.33866 0,-0.127 -0.0423,-0.26459 v -0.0952 l 0.10584,-0.20108 V 244.357 q -0.0317,-0.0212 -0.0741,-0.0318 -0.0317,-0.0106 -0.0317,-0.0847 0,-0.0423 0,-0.0741 0.0529,-0.14817 0.0952,-0.16933 0.0212,-0.0106 0.0953,-0.0317 -0.0423,-0.0952 -0.0423,-0.26459 0,-0.0741 0.0212,-0.22225 0.0212,-0.14816 0.0212,-0.22225 -0.0847,-0.0741 -0.0847,-0.22224 v -0.0741 q -0.21167,-0.0423 -0.26458,-0.10583 -0.0212,-0.0317 -0.0529,-0.0952 l -0.48683,0.10583 v 0.0952 q -0.14817,0 -0.24342,0.0635 l -0.0529,0.0318 h -0.10583 q -0.23283,-0.0953 -0.61383,-0.0953 l -0.0847,-0.0952 v -0.20108 l -0.29633,-0.10583 q 0.0212,-0.17992 0.0423,-0.24342 0.0317,-0.0635 0.14817,-0.15875 v -0.0952 h 0.10583 v -0.10583 z"
     style="font-style:normal;font-variant:normal;font-weight:normal;font-stretch:normal;font-size:10.5833px;line-height:1.25;font-family:GNUTypewriter;-inkscape-font-specification:'GNUTypewriter, Normal';font-variant-ligatures:normal;font-variant-caps:normal;font-variant-numeric:normal;font-variant-east-asian:normal;fill:#000000;fill-opacity:1;stroke:none;stroke-width:0.264583"
     id="path4554" /><path
     d="m 326.3571,240.07088 h 0.21166 l 0.10583,0.0953 h 0.1905 q 0.127,-0.10583 0.4445,-0.10583 0.0635,0 0.17992,0.0106 0.11642,0 0.17992,0 v 0.0953 h 0.48683 l 0.21166,0.40217 v 0.60324 l 0.20109,0.10584 q -0.0212,0.48683 -0.20109,0.6985 v 0.20108 q 0.0741,0.11641 0.11642,0.35983 0.0423,0.24342 0.0847,0.33867 l -0.0952,0.40216 q 0.0847,0.11642 0.0847,0.20108 0,0.0847 -0.0847,0.20109 l 0.0952,0.40216 q -0.0847,0.16934 -0.0847,0.20109 0,0.0423 0.0847,0.19049 -0.0423,0.11642 -0.0635,0.13759 -0.0212,0.0212 -0.13759,0.0635 0.10584,0.10583 0.29634,0.508 v 0.0953 q -0.0953,0.16933 -0.0953,0.40216 h -0.0952 l 0.0952,0.60325 q 0.26458,-0.1905 0.60324,-0.20108 0.0106,-0.0212 0.0212,-0.0529 0.0423,-0.0635 0.16933,-0.14817 0.29634,0.0952 0.61383,0.0952 l 0.0847,0.10584 h 0.21167 q 0.0953,-0.0952 0.29633,-0.10584 -0.0529,0.17992 -0.0953,0.22225 -0.0317,0.0317 -0.20108,0.0847 0.0741,0.15875 0.29633,0.39158 v 0.30692 l -0.1905,0.20108 q -0.0847,0 -0.30692,0.0106 -0.21166,0.0106 -0.32808,0.0106 -0.39158,0 -0.5715,-0.127 l -0.40216,0.10583 q -0.27517,-0.10583 -0.65617,-0.10583 h -0.254 v 0.10583 h -0.40216 v -0.10583 h -0.59267 v 0.10583 h -0.40216 v 0.0952 h -0.40217 q -0.24341,-0.17992 -0.50799,-0.29633 v -0.20109 q 0.16933,-0.10583 0.31749,-0.10583 l -0.21166,-0.49741 0.508,0.10583 0.10583,-0.20108 h 0.0847 l 0.10583,0.20108 h 0.10583 q 0.127,-0.15875 0.23283,-0.15875 0.0635,0 0.254,0.0529 0.0635,-0.13759 0.127,-0.17992 0.0741,-0.0529 0.27517,-0.11642 l -0.1905,-0.30691 v -0.59267 q 0.0317,-0.0741 0.0741,-0.29633 0.0529,-0.22225 0.11642,-0.30692 0,-0.16933 -0.0847,-0.29633 0,-0.17991 0.0847,-0.30691 v -0.0952 l -0.1905,-0.10584 0.10583,-0.60324 q 0,-0.0106 0.0106,-0.0423 0.0317,-0.0952 0.0952,-0.11641 0.0106,-0.0106 0.0423,-0.0212 0.0317,-0.0106 0.0423,-0.0106 -0.127,-0.27517 -0.24341,-0.35984 -0.0212,-0.0212 -0.0529,-0.0423 0.0106,-0.0529 0.0106,-0.13758 0.0106,-0.0847 0.0106,-0.13758 0.0106,-0.0529 0.0317,-0.11642 0.0212,-0.0635 0.0529,-0.11642 v -0.20108 q -0.10583,-0.13758 -0.10583,-0.39158 v -0.10584 q -0.15875,-0.0317 -0.1905,-0.0529 -0.0317,-0.0212 -0.10583,-0.14817 h -0.21167 q -0.17991,0.23283 -0.71966,0.23283 -0.127,0 -0.35984,-0.0106 -0.22224,-0.0212 -0.31749,-0.0212 0,-0.25399 0.10583,-0.40216 v -0.0953 q -0.10583,-0.13758 -0.10583,-0.40217 v -0.10583 q 0.0635,0 0.16933,0.0106 0.10583,0 0.16933,0 0.39158,0 0.65617,-0.10583 z"
     style="font-style:normal;font-variant:normal;font-weight:normal;font-stretch:normal;font-size:10.5833px;line-height:1.25;font-family:GNUTypewriter;-inkscape-font-specification:'GNUTypewriter, Normal';font-variant-ligatures:normal;font-variant-caps:normal;font-variant-numeric:normal;font-variant-east-asian:normal;fill:#000000;fill-opacity:1;stroke:none;stroke-width:0.264583"
     id="path4556" /><path
     d="m 334.97189,242.98129 q -0.0317,0.0317 0.0212,0.0423 0.0529,0 0.0635,-0.0106 0.0317,-0.0317 -0.0212,-0.0317 -0.0529,-0.0106 -0.0635,0 z m -0.9525,-1.03716 h 0.1905 q 0.127,0.0635 0.21167,0.20108 0.11641,-0.13758 0.1905,-0.15875 0.0847,-0.0317 0.29633,-0.0423 v 0.10583 h 0.40217 v 0.0952 h 0.29633 q 0.14816,0.0953 0.3175,0.0953 l 0.381,0.40216 v 0.20109 q 0.16933,0.0529 0.31749,0.20108 l 0.1905,0.80433 -0.1905,0.20108 q -0.16933,0 -0.31749,0.0953 h -0.48684 q -0.10583,0.10584 -0.23283,0.10584 h -0.0635 l -0.21166,-0.20109 q 0,-0.0529 0,-0.0741 0,-0.0318 -0.0106,-0.0529 0,-0.0212 -0.0106,-0.0423 -0.0106,-0.0212 -0.0212,-0.0317 0,-0.0106 -0.0212,-0.0423 -0.0212,-0.0423 -0.0423,-0.0635 v -0.59267 H 334.612 v -0.20108 h -0.40217 q 0,0.0529 0,0.0847 0,0.0317 -0.0106,0.0635 -0.0106,0.0212 -0.0212,0.0317 0,0.0106 -0.0317,0.0529 -0.0212,0.0318 -0.0423,0.0635 h -0.381 l -0.10583,0.10583 v 0.39159 q -0.0317,0.0212 -0.0741,0.0529 -0.0317,0.0212 -0.0423,0.0317 -0.0106,0 -0.0423,0.0106 -0.0212,0.0106 -0.0529,0.0106 -0.0317,0 -0.0847,0 l -0.10584,0.60325 q 0.0953,0.0741 0.127,0.14816 0.0423,0.0741 0.0423,0.127 0.0106,0.0529 0.0212,0.22225 0.127,0.0423 0.14817,0.0635 0.0212,0.0212 0.0635,0.13759 l -0.40217,0.20108 q 0.22225,0.11641 0.34925,0.24341 0.127,0.127 0.24342,0.34925 0.23283,0 0.40216,-0.0953 h 0.10584 q 0.23283,0.13759 0.29633,0.20109 h 0.21166 q 0.15875,-0.10584 0.40217,-0.10584 h 0.1905 q 0.0529,-0.27516 0.1905,-0.49741 l 0.10583,-0.0953 h 0.21167 q 0.0529,-0.16933 0.1905,-0.30692 0.50799,0 0.80433,0.10584 -0.0423,0.25399 -0.0423,0.34924 0,0.0952 0.0423,0.34925 -0.10584,0.14817 -0.16934,0.20109 -0.0635,0.0423 -0.23283,0.0952 -0.0212,0.22225 -0.11641,0.37041 -0.0847,0.13758 -0.28575,0.33867 l -0.59267,0.0952 q -0.11641,0.1905 -0.40216,0.40216 -0.0529,0 -0.0847,0 -0.0317,0 -0.0635,-0.0106 -0.0212,-0.0106 -0.0317,-0.0212 -0.0106,0 -0.0529,-0.0212 -0.0317,-0.0318 -0.0635,-0.0529 l -0.10583,0.20108 h -0.21167 q -0.11641,-0.0847 -0.23283,-0.13758 -0.10583,-0.0423 -0.29633,-0.0847 -0.17992,-0.0529 -0.254,-0.0741 -0.0212,-0.0317 -0.0529,-0.0635 -0.0212,-0.0423 -0.0317,-0.0529 0,-0.0106 -0.0106,-0.0318 -0.0106,-0.0317 -0.0106,-0.0635 0,-0.0317 0,-0.0847 l -0.508,-0.10584 q -0.15875,-0.15875 -0.29633,-0.20108 l -0.21167,-0.49741 q -0.13758,-0.0423 -0.381,-0.20109 0.0635,-0.20108 0.1905,-0.40216 -0.13758,-0.0423 -0.29633,-0.20108 -0.0106,-0.28575 -0.10583,-0.49742 v -0.0953 q 0.10583,-0.27517 0.10583,-0.70908 h 0.10583 v -0.40217 q 0.21167,-0.29633 0.381,-0.39158 0.0212,-0.28575 0.21167,-0.60325 l 0.10583,-0.10583 h 0.1905 q 0.0423,-0.127 0.21167,-0.29633 h 0.48683 q 0.0423,-0.0847 0.0635,-0.0952 0.0212,-0.0212 0.14816,-0.10583 z"
     style="font-style:normal;font-variant:normal;font-weight:normal;font-stretch:normal;font-size:10.5833px;line-height:1.25;font-family:GNUTypewriter;-inkscape-font-specification:'GNUTypewriter, Normal';font-variant-ligatures:normal;font-variant-caps:normal;font-variant-numeric:normal;font-variant-east-asian:normal;fill:#000000;fill-opacity:1;stroke:none;stroke-width:0.264583"
     id="path4558" /><path
     d="m 340.83503,246.62194 h 0.29633 v -0.0952 h -0.29633 z m 0.80433,-3.50307 0.10583,0.0953 z m -0.46567,0.5715 q 0.0317,-0.0317 0.0317,0.0106 0,0.0423 -0.0106,0.0529 -0.0317,0.0317 -0.0317,-0.0106 0,-0.0423 0.0106,-0.0529 z m -0.74083,0.43392 h 0.20109 v 0.29633 h -0.20109 z m 1.2065,0.0952 0.10583,0.0952 z m -0.635,0.52916 0.0635,0.0106 q 0.0212,0.0106 0,0.0318 l -0.0635,-0.0106 q -0.0212,-0.0106 0,-0.0317 z m -0.5715,0.37042 h 0.20109 q -0.0212,0.10583 -0.0318,0.127 0,0.0106 -0.0212,0.0635 -0.0212,0.0423 -0.0529,0.0635 -0.0318,0.0106 -0.0953,0.0529 z m 1.10067,0 h 0.29633 v 0.20108 h -0.29633 z m -0.6985,0.60324 q 0.1905,-0.0953 0.40216,-0.10583 -0.0106,0.21167 -0.10583,0.40217 -0.13758,-0.0741 -0.17992,-0.11642 -0.0423,-0.0423 -0.11641,-0.17992 z m 0.508,-2.80457 q -0.20109,0.15875 -0.40217,0.20108 l -0.21166,0.20108 v 0.20109 l -0.0952,0.0952 q -0.14817,0.0529 -0.39159,0.20108 -0.0318,0.15875 -0.21166,0.49741 v 0.20109 q 0.0741,0.127 0.21166,0.20108 -0.10583,0.254 -0.10583,0.33867 0,0.10583 0.10583,0.26458 -0.0212,0.0317 -0.0529,0.0741 -0.0212,0.0317 -0.0318,0.0423 0,0.0106 -0.0106,0.0423 -0.0106,0.0212 -0.0106,0.0529 0,0.0318 0,0.0847 0.0212,0.0212 0.0423,0.0635 0.0212,0.0318 0.0212,0.0423 0.0106,0.0106 0.0212,0.0317 0.0106,0.0212 0.0106,0.0423 0.0106,0.0212 0.0106,0.0529 0,0.0212 0,0.0741 l 0.0847,0.0952 q 0.33867,0.0529 0.35983,0.0529 0.0741,0 0.254,-0.0529 0.13758,0.10583 0.40217,0.10583 h 0.10583 v -0.10583 q 0.381,0 0.59266,-0.0952 v -0.49742 q -0.0212,-0.0212 -0.0423,-0.0529 -0.0212,-0.0423 -0.0317,-0.0529 0,-0.0106 -0.0106,-0.0317 -0.0106,-0.0212 -0.0212,-0.0423 0,-0.0212 0,-0.0423 0,-0.0317 0,-0.0847 0.127,-0.0635 0.21167,-0.20109 -0.0423,-0.13758 -0.0423,-0.21166 0,-0.0635 0.0423,-0.1905 v -0.0952 l -0.0423,-0.16933 q 0,-0.0635 0.127,-0.23284 -0.0741,-0.21166 -0.1905,-0.29633 0.0212,-0.0212 0.0423,-0.0529 0.0212,-0.0423 0.0212,-0.0529 0.0106,-0.0106 0.0212,-0.0317 0.0106,-0.0212 0.0106,-0.0423 0.0106,-0.0212 0.0106,-0.0423 0,-0.0317 0,-0.0847 -0.10584,-0.19049 -0.10584,-0.39158 -0.34924,-0.10583 -0.69849,-0.10583 z m -0.762,-0.83608 q 0.0317,-0.0317 0.0317,0.0318 0,0.0317 -0.0106,0.0423 -0.0317,0.0318 -0.0317,-0.0317 0,-0.0318 0.0106,-0.0423 z m -0.74083,-0.0635 0.0953,0.0952 z m 2.39182,5.40807 h -0.1905 q -0.11641,-0.13759 -0.23283,-0.16934 -0.10583,-0.0317 -0.35983,-0.0317 -0.16933,-0.16933 -0.21167,-0.30691 h -0.10583 q -0.10583,0.127 -0.16933,0.15875 -0.0529,0.0212 -0.23283,0.0423 v 0.10583 q -0.14817,0 -0.24342,0.0635 -0.0317,0.0212 -0.0529,0.0317 h -0.10583 l -0.1905,-0.0952 h -0.10583 l -0.0423,0.0952 h -0.14816 q -0.127,-0.0423 -0.14817,-0.0635 -0.0212,-0.0212 -0.0635,-0.13758 -0.20108,0.0741 -0.27516,0.0741 -0.0741,0 -0.3175,-0.0741 l -0.1905,0.20108 q -0.26458,-0.0741 -0.61383,-0.0952 l -0.29634,-0.20108 v -0.0741 q 0,-0.11642 0.10584,-0.22225 v -0.10584 q -0.10584,-0.0952 -0.10584,-0.23283 v -0.0635 l 0.1905,-0.30691 q 0.16934,0 0.3175,-0.0952 h 0.40217 v -0.0952 q 0,-0.16934 0.0847,-0.30692 v -0.0952 q -0.0847,-0.0741 -0.0847,-0.23283 v -0.0741 h 0.0847 q 0,-0.16934 -0.0847,-0.29634 v -0.20108 q 0.0212,-0.0423 0.0423,-0.0847 0.0317,-0.0529 0.0423,-0.0847 0.0106,-0.0317 0.0423,-0.0635 0.0317,-0.0423 0.0635,-0.0741 v -0.39158 l -0.10584,-0.10583 v -0.20108 q 0.10584,-0.27517 0.10584,-0.6985 h -0.10584 v -0.40217 h 0.10584 q 0,-0.42333 -0.10584,-0.69849 l 0.10584,-0.40217 -0.10584,-0.0953 h -0.19049 q -0.0212,-0.0212 -0.0423,-0.0529 -0.0212,-0.0423 -0.0317,-0.0529 0,-0.0106 -0.0106,-0.0317 -0.0106,-0.0212 -0.0212,-0.0423 0,-0.0212 0,-0.0423 0,-0.0318 0,-0.0847 h -0.508 l -0.1905,-0.29634 v -0.20108 l 0.1905,-0.29633 q 0.3175,0.0212 0.508,0.0952 v -0.0635 q 0,-0.127 0.10584,-0.23283 0.14816,0.0318 0.17991,0.0529 0.0423,0.0212 0.11642,0.14817 l 0.508,-0.10584 q 0.0317,0.0212 0.0635,0.0529 0.0423,0.0212 0.0529,0.0317 0.0106,0 0.0317,0.0106 0.0317,0.0106 0.0635,0.0106 0.0317,0 0.0847,0 l 0.29633,0.29633 v 0.80433 q 0.0212,0.0318 0.0423,0.0741 0.0317,0.0318 0.0317,0.0423 0.0106,0.0106 0.0212,0.0423 0.0106,0.0212 0.0106,0.0529 0,0.0317 0,0.0847 -0.16933,0.21167 -0.30691,0.29634 v 0.10583 q 0.13758,0.127 0.13758,0.1905 0,0.0212 -0.0423,0.21166 h 0.508 q 0.0212,-0.0317 0.0317,-0.0741 0.0106,-0.0318 0.0847,-0.0318 0.0423,0 0.0741,0 l 0.10583,-0.0952 q 0,-0.0529 0,-0.0741 0,-0.0317 0,-0.0529 0.0106,-0.0212 0.0212,-0.0423 0.0106,-0.0212 0.0106,-0.0317 0.0106,-0.0106 0.0317,-0.0423 0.0212,-0.0423 0.0423,-0.0635 h 0.40217 l 0.1905,-0.1905 q 0.0212,0.0106 0.0529,0.0212 0.0423,0 0.0529,0.0106 0.0212,0 0.0423,0.0106 0.0212,0 0.0317,0.0106 0.0106,0 0.0212,0.0106 0.0212,0.0106 0.0318,0.0317 0.0106,0.0212 0.0212,0.0423 0.0212,0.0212 0.0423,0.0529 0.16933,-0.0847 0.40216,-0.0953 l 0.3175,0.20108 v 0.29633 l 0.0847,0.10583 q 0.24342,0.0212 0.508,0.20109 0,0.0529 0,0.0847 0,0.0317 0.0106,0.0635 0.0106,0.0212 0.0106,0.0317 0.0106,0.0106 0.0318,0.0529 0.0317,0.0318 0.0529,0.0635 v 0.60325 q 0.11642,0.0847 0.1905,0.29633 -0.1905,0.26458 -0.1905,0.6985 h 0.0847 v 0.80433 l -0.0847,0.29633 q 0.0423,0.0317 0.0635,0.0529 0.0318,0.0212 0.0423,0.0529 0.0212,0.0317 0.0212,0.0529 0.0106,0.0106 0.0317,0.0635 0.0212,0.0529 0.0317,0.0847 h 0.508 l 0.29633,0.20108 q -0.0106,0.20108 -0.10583,0.29633 v 0.10583 q 0.10583,0.15875 0.10583,0.40217 v 0.1905 l -0.10583,0.10583 h -0.0847 q -0.26458,0 -0.40216,-0.10583 h -0.10584 q -0.1905,0.13758 -0.61383,0.13758 -0.127,0 -0.37041,-0.0106 -0.23284,-0.0212 -0.32809,-0.0212 z"
     style="font-style:normal;font-variant:normal;font-weight:normal;font-stretch:normal;font-size:10.5833px;line-height:1.25;font-family:GNUTypewriter;-inkscape-font-specification:'GNUTypewriter, Normal';font-variant-ligatures:normal;font-variant-caps:normal;font-variant-numeric:normal;font-variant-east-asian:normal;fill:#000000;fill-opacity:1;stroke:none;stroke-width:0.264583"
     id="path4560" /></g><circle
   style="fill:none;fill-opacity:0.976754;stroke:#ff0000;stroke-width:1.88976;stroke-linejoin:round;stroke-miterlimit:4;stroke-dasharray:none"
   id="path3529-5"
   cx="-99.313797"
   cy="-115.53532"
   r="5.669291" /><circle
   style="fill:none;fill-opacity:0.976754;stroke:#ff0000;stroke-width:1.88976;stroke-linejoin:round;stroke-miterlimit:4;stroke-dasharray:none"
   id="path3529-5-4"
   cx="-99.642593"
   cy="-91.564285"
   r="5.669291" /><rect
   style="fill:none;fill-opacity:0.976754;stroke:#ff0000;stroke-width:1.88976;stroke-linejoin:round;stroke-miterlimit:4;stroke-dasharray:none"
   id="rect3175-2-1-5-5"
   width="76.245781"
   height="11.993791"
   x="-102.65341"
   y="125.68533"
   transform="rotate(90)" /><rect
   style="fill:none;fill-opacity:0.976754;stroke:#ff0000;stroke-width:1.88976;stroke-linejoin:round;stroke-miterlimit:4;stroke-dasharray:none"
   id="rect3175-2-1-5-5-0"
   width="76.245781"
   height="11.993791"
   x="-102.65341"
   y="-353.65945"
   transform="rotate(90)" /><path
   id="rect1977"
   style="fill:none;fill-opacity:0.976754;stroke:#ff0000;stroke-width:1.88976;stroke-linejoin:round;stroke-miterlimit:4;stroke-dasharray:none"
   d="m 542.6358,-121.55104 -18.89843,18.89843 v 11.337895 h -7.56057 v 41.5742 h 7.56057 v 11.34179 l 18.89646,18.89454 h 204.09569 v -30.23633 h 7.5586 v -41.5742 h -7.5586 v -30.236325 z" /></svg>
